<?xml version="1.0" encoding="UTF-8" standalone="no"?>
<!DOCTYPE svg PUBLIC "-//W3C//DTD SVG 1.1//EN" "http://www.w3.org/Graphics/SVG/1.1/DTD/svg11.dtd">
<svg xmlns="http://www.w3.org/2000/svg" version="1.1" viewBox="148 200 890 890">

<path fill="none" d="
  M 1254.00 0.00
  L 1254.00 1254.00
  L 0.00 1254.00
  L 0.00 0.00
  L 1254.00 0.00
  Z
  M 929.05 620.22
  L 885.95 633.82
  C 885.45 633.98 885.14 634.49 885.24 635.00
  L 892.44 673.60
  C 892.56 674.22 892.08 674.80 891.44 674.81
  L 759.36 675.53
  C 758.52 675.54 757.74 675.92 757.21 676.57
  C 740.02 697.97 729.56 711.06 725.83 715.84
  C 722.98 719.51 720.76 722.29 719.17 724.19
  C 715.81 728.22 713.62 731.02 712.59 732.61
  C 712.36 732.97 708.32 738.20 700.49 748.30
  C 700.20 748.67 700.47 749.21 700.94 749.21
  L 909.79 749.21
  C 910.06 749.21 910.29 749.40 910.34 749.67
  L 924.80 827.19
  C 924.88 827.57 925.21 827.84 925.59 827.84
  L 1017.70 827.84
  C 1017.97 827.84 1018.18 827.59 1018.12 827.33
  L 940.66 441.04
  C 940.59 440.70 940.29 440.45 939.93 440.44
  C 935.56 440.34 929.92 440.29 923.00 440.30
  C 881.16 440.33 836.89 440.33 790.19 440.28
  C 786.81 440.28 786.08 439.89 784.11 442.36
  C 744.84 491.32 721.58 520.02 691.61 559.81
  C 691.39 560.10 690.93 559.92 690.96 559.55
  C 691.82 550.68 692.84 540.67 694.01 529.50
  C 698.62 485.48 702.11 451.56 704.46 427.75
  C 704.69 425.45 704.76 423.87 704.68 423.01
  C 704.66 422.79 704.47 422.63 704.25 422.63
  L 516.25 422.63
  C 515.40 422.63 514.59 423.00 514.02 423.64
  C 508.42 430.02 502.29 436.35 498.02 441.78
  C 494.08 446.79 489.64 451.22 485.31 456.37
  C 478.20 464.84 473.30 470.58 470.63 473.61
  C 459.20 486.58 432.72 517.44 391.21 566.20
  C 377.06 582.83 368.62 592.72 365.90 595.89
  C 300.89 671.64 265.54 712.87 259.85 719.60
  C 243.46 738.98 215.09 772.28 174.75 819.50
  C 173.47 821.00 171.39 823.59 168.52 827.28
  C 168.34 827.51 168.50 827.84 168.79 827.84
  L 270.63 827.84
  C 271.32 827.84 271.96 827.52 272.38 826.97
  C 273.89 824.96 275.62 822.82 277.55 820.55
  C 305.42 787.86 341.54 744.97 385.91 691.89
  C 403.62 670.69 417.08 654.80 426.28 644.23
  C 443.45 624.51 457.23 608.90 467.64 597.39
  C 504.69 556.41 540.93 517.13 576.34 479.55
  C 576.81 479.05 577.47 478.77 578.15 478.77
  L 603.08 478.77
  C 603.48 478.77 603.78 479.11 603.74 479.51
  L 583.12 657.15
  C 583.08 657.51 582.80 657.79 582.44 657.83
  L 443.00 674.64
  C 442.68 674.68 442.39 674.84 442.18 675.09
  L 372.09 758.85
  C 371.85 759.13 372.12 759.56 372.48 759.46
  C 381.77 757.02 391.39 754.38 401.34 751.54
  C 419.34 746.41 438.52 741.09 458.87 735.58
  C 487.22 727.90 535.81 714.64 583.42 701.14
  C 609.58 693.71 622.96 690.24 655.66 681.19
  C 687.55 672.36 717.54 664.73 748.67 658.63
  C 762.32 655.96 771.78 654.02 777.06 652.79
  C 801.30 647.17 831.39 641.60 856.30 635.49
  C 873.35 631.30 892.35 628.46 908.65 624.38
  C 908.91 624.31 914.18 623.07 924.45 620.66
  C 926.58 620.16 928.08 619.86 928.95 619.77
  C 929.07 619.76 929.18 619.84 929.20 619.95
  C 929.23 620.07 929.16 620.18 929.05 620.22
  Z
  M 707.75 677.95
  C 708.19 677.34 707.60 676.52 706.88 676.75
  L 584.16 715.49
  C 584.00 715.54 583.87 715.64 583.77 715.77
  L 501.44 826.59
  C 501.06 827.11 501.43 827.84 502.07 827.84
  L 600.91 827.84
  C 601.16 827.84 601.40 827.72 601.54 827.51
  L 707.75 677.95
  Z"
/>
<path fill="#056bfe" d="
  M 928.95 619.77
  C 928.08 619.86 926.58 620.16 924.45 620.66
  C 914.18 623.07 908.91 624.31 908.65 624.38
  C 892.35 628.46 873.35 631.30 856.30 635.49
  C 831.39 641.60 801.30 647.17 777.06 652.79
  C 771.78 654.02 762.32 655.96 748.67 658.63
  C 717.54 664.73 687.55 672.36 655.66 681.19
  C 622.96 690.24 609.58 693.71 583.42 701.14
  C 535.81 714.64 487.22 727.90 458.87 735.58
  C 438.52 741.09 419.34 746.41 401.34 751.54
  C 391.39 754.38 381.77 757.02 372.48 759.46
  C 372.12 759.56 371.85 759.13 372.09 758.85
  L 442.18 675.09
  C 442.39 674.84 442.68 674.68 443.00 674.64
  L 582.44 657.83
  C 582.80 657.79 583.08 657.51 583.12 657.15
  L 603.74 479.51
  C 603.78 479.11 603.48 478.77 603.08 478.77
  L 578.15 478.77
  C 577.47 478.77 576.81 479.05 576.34 479.55
  C 540.93 517.13 504.69 556.41 467.64 597.39
  C 457.23 608.90 443.45 624.51 426.28 644.23
  C 417.08 654.80 403.62 670.69 385.91 691.89
  C 341.54 744.97 305.42 787.86 277.55 820.55
  C 275.62 822.82 273.89 824.96 272.38 826.97
  C 271.96 827.52 271.32 827.84 270.63 827.84
  L 168.79 827.84
  C 168.50 827.84 168.34 827.51 168.52 827.28
  C 171.39 823.59 173.47 821.00 174.75 819.50
  C 215.09 772.28 243.46 738.98 259.85 719.60
  C 265.54 712.87 300.89 671.64 365.90 595.89
  C 368.62 592.72 377.06 582.83 391.21 566.20
  C 432.72 517.44 459.20 486.58 470.63 473.61
  C 473.30 470.58 478.20 464.84 485.31 456.37
  C 489.64 451.22 494.08 446.79 498.02 441.78
  C 502.29 436.35 508.42 430.02 514.02 423.64
  C 514.59 423.00 515.40 422.63 516.25 422.63
  L 704.25 422.63
  C 704.47 422.63 704.66 422.79 704.68 423.01
  C 704.76 423.87 704.69 425.45 704.46 427.75
  C 702.11 451.56 698.62 485.48 694.01 529.50
  C 692.84 540.67 691.82 550.68 690.96 559.55
  C 690.93 559.92 691.39 560.10 691.61 559.81
  C 721.58 520.02 744.84 491.32 784.11 442.36
  C 786.08 439.89 786.81 440.28 790.19 440.28
  C 836.89 440.33 881.16 440.33 923.00 440.30
  C 929.92 440.29 935.56 440.34 939.93 440.44
  C 940.29 440.45 940.59 440.70 940.66 441.04
  L 1018.12 827.33
  C 1018.18 827.59 1017.97 827.84 1017.70 827.84
  L 925.59 827.84
  C 925.21 827.84 924.88 827.57 924.80 827.19
  L 910.34 749.67
  C 910.29 749.40 910.06 749.21 909.79 749.21
  L 700.94 749.21
  C 700.47 749.21 700.20 748.67 700.49 748.30
  C 708.32 738.20 712.36 732.97 712.59 732.61
  C 713.62 731.02 715.81 728.22 719.17 724.19
  C 720.76 722.29 722.98 719.51 725.83 715.84
  C 729.56 711.06 740.02 697.97 757.21 676.57
  C 757.74 675.92 758.52 675.54 759.36 675.53
  L 891.44 674.81
  C 892.08 674.80 892.56 674.22 892.44 673.60
  L 885.24 635.00
  C 885.14 634.49 885.45 633.98 885.95 633.82
  L 929.05 620.22
  C 929.16 620.18 929.23 620.07 929.20 619.95
  C 929.18 619.84 929.07 619.76 928.95 619.77
  Z
  M 722.87 649.61
  C 724.91 649.46 726.12 649.34 726.49 649.27
  C 736.68 647.20 745.67 645.71 753.45 644.79
  C 770.13 642.81 788.21 638.98 802.95 637.22
  C 813.12 636.02 822.49 634.16 834.74 632.16
  C 839.07 631.45 847.05 630.40 858.68 628.99
  C 866.63 628.02 874.68 626.77 882.81 625.22
  C 883.19 625.15 883.45 624.79 883.40 624.40
  C 882.87 620.11 882.42 617.06 882.05 615.24
  C 878.24 596.19 870.69 556.38 859.40 495.79
  C 859.33 495.40 858.99 495.12 858.60 495.13
  L 846.63 495.19
  C 846.13 495.20 845.65 495.42 845.33 495.80
  C 812.07 535.51 777.97 577.59 743.02 622.02
  C 736.41 630.43 729.56 639.38 722.47 648.88
  C 722.24 649.20 722.48 649.64 722.87 649.61
  Z"
/>
<path fill="none" d="
  M 722.87 649.61
  C 722.48 649.64 722.24 649.20 722.47 648.88
  C 729.56 639.38 736.41 630.43 743.02 622.02
  C 777.97 577.59 812.07 535.51 845.33 495.80
  C 845.65 495.42 846.13 495.20 846.63 495.19
  L 858.60 495.13
  C 858.99 495.12 859.33 495.40 859.40 495.79
  C 870.69 556.38 878.24 596.19 882.05 615.24
  C 882.42 617.06 882.87 620.11 883.40 624.40
  C 883.45 624.79 883.19 625.15 882.81 625.22
  C 874.68 626.77 866.63 628.02 858.68 628.99
  C 847.05 630.40 839.07 631.45 834.74 632.16
  C 822.49 634.16 813.12 636.02 802.95 637.22
  C 788.21 638.98 770.13 642.81 753.45 644.79
  C 745.67 645.71 736.68 647.20 726.49 649.27
  C 726.12 649.34 724.91 649.46 722.87 649.61
  Z"
/>
<path fill="#056bfe" d="
  M 707.75 677.95
  L 601.54 827.51
  C 601.40 827.72 601.16 827.84 600.91 827.84
  L 502.07 827.84
  C 501.43 827.84 501.06 827.11 501.44 826.59
  L 583.77 715.77
  C 583.87 715.64 584.00 715.54 584.16 715.49
  L 706.88 676.75
  C 707.60 676.52 708.19 677.34 707.75 677.95
  Z"
/>
</svg>
