<?xml version="1.0" encoding="UTF-8" standalone="no"?>
<!DOCTYPE svg PUBLIC "-//W3C//DTD SVG 1.1//EN" "http://www.w3.org/Graphics/SVG/1.1/DTD/svg11.dtd">
<svg xmlns="http://www.w3.org/2000/svg" version="1.1" viewBox="93 255 1069 710">

<path fill="none" d="
  M 1254.00 0.00
  L 1254.00 1254.00
  L 0.00 1254.00
  L 0.00 0.00
  L 1254.00 0.00
  Z
  M 914.34 447.81
  C 914.35 447.84 914.33 447.87 914.30 447.88
  L 873.76 460.54
  C 873.07 460.76 872.65 461.46 872.78 462.17
  L 879.32 497.51
  C 879.41 498.01 879.03 498.47 878.52 498.48
  L 756.64 499.36
  C 756.02 499.37 755.43 499.60 754.98 500.02
  C 753.51 501.39 751.67 503.46 749.47 506.23
  C 728.34 532.85 717.64 546.60 709.71 556.26
  C 707.40 559.08 704.65 562.72 701.46 567.18
  C 701.30 567.40 701.46 567.71 701.73 567.71
  L 895.46 567.71
  C 895.77 567.71 896.04 567.94 896.10 568.25
  L 909.37 639.97
  C 909.46 640.44 909.87 640.79 910.36 640.79
  L 995.24 640.79
  C 995.53 640.79 995.76 640.54 995.73 640.25
  C 995.42 637.54 994.96 634.68 994.35 631.67
  C 984.50 583.62 979.39 558.55 979.04 556.48
  C 975.44 535.42 966.94 498.75 963.26 478.31
  C 962.25 472.69 958.97 456.40 953.42 429.43
  C 951.28 419.04 948.08 402.73 943.82 380.51
  C 932.40 320.94 926.09 288.10 924.88 281.99
  C 924.76 281.37 924.22 280.93 923.59 280.93
  L 782.51 280.93
  C 781.79 280.93 781.11 281.24 780.64 281.78
  C 778.93 283.75 777.05 286.00 775.02 288.52
  C 747.61 322.47 720.40 356.91 693.39 391.83
  C 693.24 392.03 692.92 391.91 692.94 391.66
  L 705.24 265.78
  C 705.27 265.43 705.00 265.12 704.65 265.12
  L 531.75 265.12
  C 531.16 265.12 530.60 265.37 530.21 265.81
  C 523.92 272.90 519.99 277.35 518.42 279.16
  C 506.21 293.27 469.07 336.79 406.98 409.74
  C 388.43 431.54 374.37 448.07 364.82 459.34
  C 362.41 462.18 352.23 474.07 334.26 495.02
  C 289.57 547.12 253.34 589.78 225.56 623.01
  C 220.71 628.81 216.19 633.70 211.17 639.86
  C 210.86 640.24 211.13 640.82 211.63 640.82
  L 304.76 640.82
  C 305.68 640.82 306.55 640.41 307.15 639.71
  C 381.06 551.75 419.62 505.79 422.85 501.84
  C 428.09 495.44 438.75 482.93 454.83 464.32
  C 479.16 436.15 508.92 402.66 544.10 363.85
  C 557.77 348.77 572.10 333.32 587.11 317.49
  C 587.61 316.96 588.31 316.66 589.04 316.66
  L 611.42 316.66
  C 611.84 316.66 612.17 317.03 612.12 317.45
  L 593.22 482.27
  C 593.18 482.65 592.88 482.94 592.50 482.99
  L 465.17 498.43
  C 464.69 498.49 464.24 498.69 463.88 499.01
  C 462.30 500.42 460.97 501.79 459.88 503.12
  C 450.88 514.14 439.48 528.00 425.69 544.70
  C 423.35 547.53 420.89 550.00 419.10 552.42
  C 416.43 556.03 413.35 559.77 409.87 563.62
  C 405.87 568.06 403.08 572.30 399.15 576.83
  C 398.96 577.05 399.17 577.39 399.45 577.32
  C 405.44 575.96 411.33 574.42 417.11 572.71
  C 428.64 569.30 434.42 567.58 434.45 567.57
  C 435.79 567.14 506.57 547.41 646.80 508.38
  C 669.70 502.01 684.60 497.97 691.51 496.28
  C 712.01 491.23 730.90 486.98 748.19 483.51
  C 762.22 480.69 771.58 478.77 776.27 477.75
  C 802.26 472.09 816.70 469.25 839.69 463.97
  C 851.46 461.26 863.25 458.65 875.07 456.12
  C 879.07 455.27 883.33 454.73 887.27 453.78
  C 897.59 451.28 906.57 449.20 914.20 447.53
  C 914.23 447.52 914.25 447.54 914.26 447.57
  L 914.34 447.81
  Z
  M 610.04 640.80
  C 610.22 640.80 610.39 640.71 610.49 640.57
  L 708.56 501.30
  C 708.86 500.87 708.45 500.30 707.95 500.46
  L 594.25 536.48
  C 594.14 536.51 594.04 536.58 593.97 536.67
  L 517.94 639.92
  C 517.67 640.29 517.93 640.80 518.38 640.80
  L 610.04 640.80
  Z
  M 104.54 774.04
  L 120.18 774.04
  C 120.80 774.04 121.37 773.70 121.67 773.15
  L 128.74 760.05
  C 128.97 759.61 129.44 759.34 129.94 759.34
  L 173.77 759.34
  C 174.12 759.34 174.45 759.54 174.60 759.85
  L 180.96 772.85
  C 181.30 773.55 182.01 774.00 182.79 774.00
  L 197.81 774.00
  C 198.13 774.00 198.34 773.66 198.19 773.38
  C 186.08 750.21 173.83 727.19 161.44 704.34
  C 160.67 702.92 159.52 702.13 158.00 701.96
  C 154.22 701.54 146.30 701.03 142.85 703.16
  C 142.34 703.47 141.92 703.92 141.63 704.46
  L 104.31 773.65
  C 104.21 773.82 104.34 774.04 104.54 774.04
  Z
  M 255.33 701.82
  C 254.94 701.82 254.63 702.14 254.63 702.53
  L 254.63 773.40
  C 254.63 773.80 254.95 774.12 255.35 774.12
  C 277.86 774.07 297.33 774.07 313.75 774.11
  C 322.11 774.14 329.19 772.25 332.66 763.88
  C 333.38 762.15 333.73 759.69 333.71 756.48
  C 333.66 749.01 334.64 742.07 327.51 737.94
  C 327.21 737.76 327.20 737.33 327.49 737.14
  C 331.04 734.75 332.90 731.37 333.07 727.00
  C 333.42 718.49 334.36 710.48 327.37 705.16
  C 322.72 701.61 317.83 701.73 310.64 701.81
  C 304.91 701.87 286.48 701.87 255.33 701.82
  Z
  M 397.15 759.98
  L 397.25 773.49
  C 397.25 773.84 397.54 774.12 397.89 774.12
  C 428.84 774.14 446.92 774.14 452.12 774.11
  C 460.96 774.08 467.39 770.42 470.46 762.14
  C 471.12 760.36 471.36 757.58 471.19 753.80
  C 471.16 753.25 471.16 750.36 471.19 745.15
  C 471.20 744.57 471.12 744.00 470.97 743.44
  C 469.57 738.29 466.60 734.64 462.07 732.50
  C 459.57 731.32 454.97 730.81 448.26 730.96
  C 443.54 731.07 433.22 731.04 417.29 730.87
  C 413.97 730.84 412.10 729.36 411.67 726.44
  C 410.60 719.12 412.14 715.95 419.76 716.01
  C 435.45 716.12 451.78 716.09 468.75 715.94
  C 469.04 715.94 469.27 715.71 469.27 715.42
  L 469.17 702.35
  C 469.17 702.05 468.93 701.81 468.63 701.81
  C 438.90 701.87 421.98 701.85 417.87 701.74
  C 407.64 701.46 397.69 705.68 397.13 717.32
  C 396.61 728.24 396.18 739.57 408.53 743.02
  C 410.44 743.55 413.34 743.82 417.25 743.81
  C 434.66 743.77 446.07 743.78 451.48 743.84
  C 457.80 743.91 457.18 750.44 456.56 755.07
  C 456.15 758.10 454.29 759.61 451.00 759.60
  C 435.47 759.58 417.65 759.58 397.52 759.61
  C 397.32 759.61 397.15 759.78 397.15 759.98
  Z
  M 616.92 721.84
  C 616.92 710.77 607.95 701.80 596.88 701.80
  L 552.52 701.80
  C 541.45 701.80 532.48 710.77 532.48 721.84
  L 532.48 754.05
  C 532.48 765.12 541.45 774.09 552.52 774.09
  L 596.88 774.09
  C 607.95 774.09 616.92 765.12 616.92 754.05
  L 616.92 721.84
  Z
  M 744.87 760.21
  C 744.87 759.87 744.59 759.59 744.24 759.59
  L 692.15 759.59
  C 691.25 759.59 690.44 759.07 690.06 758.25
  C 689.36 756.73 689.52 754.93 689.52 753.20
  C 689.61 733.69 689.59 716.80 689.46 702.51
  C 689.45 702.13 689.14 701.82 688.75 701.82
  L 674.60 701.82
  C 674.36 701.82 674.16 702.02 674.16 702.26
  C 674.21 732.63 674.20 748.64 674.15 750.27
  C 673.90 757.88 674.41 763.14 675.67 766.04
  C 678.01 771.44 682.95 774.12 690.49 774.07
  C 690.72 774.06 708.59 774.07 744.10 774.08
  C 744.53 774.08 744.87 773.74 744.87 773.31
  L 744.87 760.21
  Z
  M 885.06 701.77
  L 871.31 701.77
  C 870.92 701.77 870.61 702.09 870.60 702.48
  C 870.49 709.63 870.47 725.38 870.52 749.73
  C 870.53 756.43 867.20 759.74 860.52 759.66
  C 852.16 759.55 843.33 759.54 834.04 759.63
  C 829.93 759.66 827.18 759.21 825.79 758.27
  C 823.33 756.61 822.11 754.20 822.12 751.03
  C 822.19 737.11 822.19 720.88 822.12 702.33
  C 822.11 702.05 821.89 701.83 821.61 701.83
  L 807.61 701.83
  C 807.25 701.83 806.95 702.13 806.95 702.49
  C 806.94 714.90 806.91 730.69 806.86 749.85
  C 806.85 754.49 807.15 757.73 807.75 759.58
  C 810.71 768.67 819.57 774.29 829.01 774.18
  C 837.17 774.09 846.25 774.08 856.26 774.16
  C 859.66 774.18 862.78 774.12 865.63 773.98
  C 877.93 773.36 885.54 766.49 885.64 753.24
  C 885.75 737.65 885.80 720.74 885.78 702.50
  C 885.78 702.10 885.46 701.77 885.06 701.77
  Z
  M 990.04 774.11
  C 990.50 774.11 990.87 773.74 990.87 773.28
  L 990.87 716.87
  C 990.87 716.41 991.24 716.04 991.70 716.04
  L 1020.67 716.04
  C 1021.13 716.04 1021.50 715.67 1021.50 715.21
  L 1021.50 702.68
  C 1021.50 702.22 1021.13 701.85 1020.67 701.85
  L 947.27 701.85
  C 946.81 701.85 946.44 702.22 946.44 702.68
  L 946.44 715.16
  C 946.44 715.62 946.81 715.99 947.27 715.99
  L 975.01 715.99
  C 975.47 715.99 975.84 716.36 975.84 716.82
  L 975.84 773.28
  C 975.84 773.74 976.21 774.11 976.67 774.11
  L 990.04 774.11
  Z
  M 1150.38 774.10
  C 1150.77 774.10 1151.09 773.78 1151.09 773.39
  L 1151.09 760.32
  C 1151.09 759.93 1150.77 759.61 1150.38 759.61
  L 1095.57 759.61
  C 1095.18 759.61 1094.86 759.29 1094.86 758.90
  L 1094.86 744.51
  C 1094.86 744.12 1095.18 743.80 1095.57 743.80
  L 1148.74 743.80
  C 1149.13 743.80 1149.45 743.48 1149.45 743.09
  L 1149.45 731.68
  C 1149.45 731.29 1149.13 730.97 1148.74 730.97
  L 1095.60 730.97
  C 1095.21 730.97 1094.89 730.65 1094.89 730.26
  L 1094.89 716.74
  C 1094.89 716.35 1095.21 716.03 1095.60 716.03
  L 1150.38 716.03
  C 1150.77 716.03 1151.09 715.71 1151.09 715.32
  L 1151.09 702.55
  C 1151.09 702.16 1150.77 701.84 1150.38 701.84
  L 1080.11 701.84
  C 1079.72 701.84 1079.40 702.16 1079.40 702.55
  L 1079.40 773.39
  C 1079.40 773.78 1079.72 774.10 1080.11 774.10
  L 1150.38 774.10
  Z
  M 422.62 817.37
  C 418.69 817.37 414.40 817.35 409.75 817.33
  C 406.34 817.32 402.98 817.29 399.67 817.24
  C 399.30 817.23 398.99 817.54 398.99 817.91
  L 398.99 826.24
  C 398.99 826.56 399.25 826.82 399.57 826.82
  L 416.70 826.82
  C 416.93 826.82 417.11 827.00 417.11 827.23
  L 417.11 866.17
  C 417.11 866.41 417.30 866.60 417.53 866.62
  C 419.06 866.73 420.72 866.79 422.51 866.80
  C 424.31 866.80 425.97 866.75 427.49 866.64
  C 427.73 866.63 427.92 866.43 427.92 866.19
  L 428.09 827.25
  C 428.09 827.03 428.27 826.84 428.50 826.85
  L 445.63 826.92
  C 445.95 826.92 446.21 826.66 446.21 826.34
  L 446.25 818.01
  C 446.25 817.64 445.95 817.34 445.57 817.34
  C 442.27 817.37 438.91 817.39 435.49 817.39
  C 430.84 817.39 426.55 817.38 422.62 817.37
  Z
  M 497.97 842.02
  C 497.96 853.47 498.03 861.49 498.16 866.08
  C 498.17 866.41 498.44 866.67 498.76 866.67
  L 508.54 866.67
  C 508.95 866.67 509.29 866.33 509.29 865.92
  L 509.29 847.22
  C 509.29 846.81 509.61 846.48 510.02 846.47
  C 514.14 846.35 518.36 846.29 522.67 846.30
  C 526.98 846.30 531.19 846.36 535.32 846.48
  C 535.72 846.49 536.04 846.83 536.04 847.23
  L 536.02 865.93
  C 536.02 866.35 536.36 866.68 536.77 866.68
  L 546.55 866.69
  C 546.88 866.69 547.14 866.43 547.15 866.10
  C 547.29 861.52 547.36 853.49 547.37 842.04
  C 547.37 830.59 547.31 822.57 547.18 817.98
  C 547.17 817.65 546.90 817.39 546.58 817.39
  L 536.80 817.39
  C 536.38 817.39 536.05 817.73 536.05 818.14
  L 536.05 836.84
  C 536.05 837.25 535.73 837.58 535.32 837.59
  C 531.20 837.71 526.98 837.77 522.67 837.76
  C 518.36 837.76 514.15 837.70 510.02 837.58
  C 509.62 837.57 509.29 837.23 509.29 836.83
  L 509.31 818.13
  C 509.31 817.71 508.98 817.38 508.56 817.38
  L 498.78 817.37
  C 498.46 817.37 498.20 817.63 498.18 817.96
  C 498.05 822.55 497.98 830.57 497.97 842.02
  Z
  M 602.74 817.98
  C 602.66 834.84 602.67 847.08 602.77 854.71
  C 602.86 861.86 607.19 866.30 614.18 866.54
  C 621.97 866.82 632.06 866.75 646.65 866.64
  C 646.98 866.63 647.25 866.36 647.25 866.03
  L 647.19 857.12
  C 647.18 856.74 646.88 856.43 646.50 856.42
  C 637.49 856.06 627.75 856.03 617.27 856.33
  C 615.70 856.38 614.59 855.83 613.94 854.70
  C 613.88 854.59 613.85 854.47 613.84 854.35
  L 613.58 817.69
  C 613.58 817.46 613.39 817.28 613.16 817.28
  L 603.44 817.28
  C 603.05 817.28 602.74 817.59 602.74 817.98
  Z
  M 744.04 856.38
  L 712.28 856.38
  C 711.67 856.38 711.18 855.89 711.17 855.28
  L 711.12 847.43
  C 711.11 846.88 711.60 846.45 712.14 846.52
  C 715.81 846.98 719.76 847.08 724.00 846.81
  C 730.55 846.40 736.67 846.38 742.36 846.76
  C 743.37 846.83 744.23 846.03 744.23 845.02
  L 744.23 839.12
  C 744.23 838.13 743.36 837.36 742.38 837.48
  C 740.26 837.75 738.46 837.83 736.99 837.72
  C 728.53 837.11 720.32 837.14 712.35 837.81
  C 711.59 837.87 710.93 837.27 710.93 836.51
  L 710.93 827.75
  C 710.93 827.25 711.33 826.85 711.83 826.85
  L 744.06 826.85
  C 744.60 826.85 745.04 826.42 745.04 825.88
  L 745.04 818.17
  C 745.04 817.65 744.61 817.22 744.09 817.22
  L 700.34 817.22
  C 700.14 817.22 699.97 817.39 699.97 817.59
  L 699.97 866.27
  C 699.97 866.56 700.20 866.79 700.48 866.79
  L 744.14 866.47
  C 744.51 866.47 744.81 866.17 744.81 865.79
  L 744.81 857.15
  C 744.81 856.72 744.47 856.38 744.04 856.38
  Z
  M 942.81 866.31
  L 942.81 856.97
  C 942.81 856.63 942.53 856.35 942.19 856.35
  L 910.31 856.35
  C 909.72 856.35 909.25 855.88 909.25 855.29
  L 909.25 847.27
  C 909.25 846.82 909.65 846.46 910.10 846.51
  C 914.29 846.94 917.60 847.08 920.01 846.94
  C 928.16 846.47 935.26 846.29 941.29 846.41
  C 941.53 846.42 941.73 846.23 941.73 845.99
  L 941.73 838.15
  C 941.73 837.86 941.50 837.63 941.22 837.63
  L 909.99 837.63
  C 909.53 837.63 909.15 837.26 909.15 836.80
  L 909.15 827.22
  C 909.15 827.03 909.31 826.88 909.50 826.88
  L 942.36 826.88
  C 942.67 826.88 942.93 826.62 942.93 826.31
  L 942.93 817.77
  C 942.93 817.47 942.69 817.23 942.39 817.23
  L 898.82 817.23
  C 898.52 817.23 898.27 817.47 898.27 817.77
  L 898.27 865.96
  C 898.27 866.32 898.56 866.61 898.92 866.61
  L 942.51 866.61
  C 942.68 866.61 942.81 866.48 942.81 866.31
  Z
  M 359.93 866.58
  C 360.31 866.58 360.56 866.17 360.39 865.83
  C 357.63 860.33 355.05 855.81 351.96 848.78
  C 350.17 844.70 348.08 840.59 345.71 836.44
  C 342.70 831.19 340.85 826.74 338.25 821.52
  C 335.67 816.33 331.29 816.92 326.14 817.36
  C 325.85 817.39 325.57 817.47 325.31 817.60
  C 323.94 818.29 323.03 819.05 322.60 819.87
  C 320.85 823.19 319.56 826.60 317.29 830.62
  C 313.95 836.54 310.48 843.22 306.88 850.67
  C 305.14 854.28 302.87 858.42 300.08 863.10
  C 299.53 864.03 299.09 864.99 298.76 866.00
  C 298.62 866.44 298.94 866.88 299.40 866.88
  L 309.74 866.88
  C 310.40 866.88 311.01 866.49 311.28 865.89
  L 315.18 857.49
  C 315.44 856.93 316.00 856.57 316.62 856.57
  L 343.49 856.57
  C 343.78 856.57 344.04 856.74 344.17 857.00
  L 348.58 866.01
  C 348.74 866.36 349.10 866.58 349.48 866.58
  L 359.93 866.58
  Z
  M 798.71 817.85
  L 798.71 826.23
  C 798.71 826.58 798.99 826.86 799.34 826.86
  L 816.49 826.86
  C 816.77 826.86 817.00 827.09 817.00 827.38
  L 817.00 865.85
  C 817.00 866.23 817.30 866.53 817.68 866.53
  L 826.79 866.53
  C 827.12 866.53 827.39 866.26 827.39 865.93
  C 827.40 860.42 827.57 850.02 827.90 834.75
  C 827.95 832.42 827.82 829.97 827.51 827.39
  C 827.47 827.09 827.71 826.82 828.02 826.82
  L 846.32 826.82
  C 846.45 826.82 846.55 826.72 846.55 826.59
  L 846.49 817.64
  C 846.49 817.45 846.33 817.29 846.13 817.29
  L 799.27 817.29
  C 798.96 817.29 798.71 817.54 798.71 817.85
  Z
  M 254.16 838.86
  C 254.16 838.46 253.83 838.13 253.43 838.13
  L 104.47 838.13
  C 104.07 838.13 103.74 838.46 103.74 838.86
  L 103.74 848.88
  C 103.74 849.28 104.07 849.61 104.47 849.61
  L 253.43 849.61
  C 253.83 849.61 254.16 849.28 254.16 848.88
  L 254.16 838.86
  Z
  M 1151.27 838.88
  C 1151.27 838.47 1150.93 838.13 1150.52 838.13
  L 1001.68 838.13
  C 1001.27 838.13 1000.93 838.47 1000.93 838.88
  L 1000.93 848.86
  C 1000.93 849.27 1001.27 849.61 1001.68 849.61
  L 1150.52 849.61
  C 1150.93 849.61 1151.27 849.27 1151.27 848.86
  L 1151.27 838.88
  Z
  M 379.54 953.03
  C 381.10 953.03 381.98 953.02 382.17 953.02
  C 382.49 953.01 382.74 952.75 382.74 952.43
  L 382.67 926.42
  C 382.67 926.10 382.94 925.84 383.26 925.84
  L 392.26 925.82
  C 392.73 925.82 393.11 925.43 393.11 924.96
  L 393.10 920.86
  C 393.10 920.40 392.73 920.03 392.28 920.03
  C 388.15 919.97 383.88 919.96 379.48 919.98
  C 375.08 919.97 370.81 920.00 366.68 920.07
  C 366.23 920.08 365.87 920.45 365.87 920.90
  L 365.87 925.01
  C 365.87 925.48 366.25 925.86 366.72 925.86
  L 375.72 925.85
  C 376.05 925.85 376.31 926.11 376.31 926.43
  L 376.33 952.44
  C 376.33 952.76 376.59 953.02 376.90 953.03
  C 377.09 953.03 377.97 953.03 379.54 953.03
  Z
  M 934.2246 919.6531
  C 925.39 919.82 918.37 927.55 918.5529 936.9072
  C 918.73 946.27 926.04 953.72 934.8754 953.5469
  C 943.71 953.38 950.73 945.65 950.5471 936.2928
  C 950.37 926.93 943.06 919.48 934.2246 919.6531
  Z
  M 196.33 944.54
  C 199.32 944.54 201.11 944.56 201.71 944.60
  C 202.06 944.62 202.37 944.85 202.49 945.18
  L 205.17 952.29
  C 205.36 952.77 205.82 953.09 206.33 953.09
  L 211.01 953.09
  C 211.42 953.09 211.71 952.68 211.56 952.29
  L 199.65 920.69
  C 199.54 920.40 199.28 920.20 198.98 920.16
  C 198.12 920.05 197.24 920.00 196.32 920.00
  C 195.40 920.00 194.52 920.05 193.66 920.16
  C 193.36 920.20 193.10 920.40 192.99 920.69
  L 181.10 952.30
  C 180.95 952.68 181.23 953.10 181.65 953.10
  L 186.33 953.10
  C 186.84 953.09 187.30 952.78 187.49 952.29
  L 190.16 945.18
  C 190.29 944.85 190.59 944.63 190.95 944.60
  C 191.54 944.56 193.33 944.54 196.33 944.54
  Z
  M 230.37 953.20
  C 231.95 953.21 232.83 953.21 233.02 953.20
  C 233.34 953.20 233.60 952.93 233.60 952.61
  L 233.64 926.43
  C 233.64 926.11 233.91 925.85 234.23 925.85
  L 243.30 925.86
  C 243.77 925.86 244.15 925.48 244.15 925.00
  L 244.16 920.87
  C 244.16 920.42 243.79 920.04 243.34 920.03
  C 239.18 919.96 234.88 919.93 230.45 919.93
  C 226.02 919.91 221.73 919.92 217.57 919.97
  C 217.11 919.98 216.75 920.35 216.74 920.81
  L 216.73 924.94
  C 216.73 925.41 217.11 925.80 217.58 925.80
  L 226.64 925.83
  C 226.97 925.83 227.24 926.09 227.23 926.42
  L 227.15 952.59
  C 227.15 952.92 227.40 953.18 227.72 953.19
  C 227.91 953.20 228.79 953.20 230.37 953.20
  Z
  M 270.13 939.08
  C 271.23 939.08 273.49 939.08 276.91 939.08
  C 277.25 939.08 277.53 939.36 277.53 939.70
  L 277.53 952.23
  C 277.53 952.68 277.89 953.04 278.34 953.04
  L 283.25 953.04
  C 283.72 953.04 284.10 952.66 284.10 952.19
  L 284.10 920.73
  C 284.10 920.34 283.78 920.02 283.39 920.02
  L 278.17 920.02
  C 277.80 920.02 277.50 920.32 277.50 920.69
  L 277.50 933.20
  C 277.50 933.47 277.28 933.69 277.01 933.70
  C 274.73 933.72 272.44 933.74 270.13 933.74
  C 267.81 933.74 265.52 933.73 263.25 933.71
  C 262.97 933.71 262.75 933.49 262.75 933.22
  L 262.73 920.71
  C 262.73 920.34 262.43 920.04 262.06 920.04
  L 256.84 920.05
  C 256.44 920.05 256.13 920.37 256.13 920.76
  L 256.19 952.22
  C 256.19 952.69 256.58 953.07 257.05 953.07
  L 261.96 953.06
  C 262.40 953.06 262.76 952.69 262.76 952.25
  L 262.74 939.72
  C 262.74 939.37 263.02 939.09 263.36 939.09
  C 266.77 939.09 269.03 939.09 270.13 939.08
  Z
  M 321.33 948.12
  C 321.33 947.78 321.06 947.51 320.72 947.51
  L 305.54 947.51
  C 305.20 947.51 304.93 947.24 304.93 946.90
  L 304.93 920.68
  C 304.93 920.34 304.66 920.07 304.32 920.07
  L 299.12 920.07
  C 298.78 920.07 298.51 920.34 298.51 920.68
  L 298.51 952.55
  C 298.51 952.89 298.78 953.16 299.12 953.16
  L 320.72 953.16
  C 321.06 953.16 321.33 952.89 321.33 952.55
  L 321.33 948.12
  Z
  M 332.70 921.00
  L 332.87 952.43
  C 332.88 952.79 333.17 953.07 333.52 953.07
  L 355.03 953.05
  C 355.54 953.05 355.95 952.65 355.97 952.15
  L 356.08 948.34
  C 356.09 947.86 355.70 947.47 355.22 947.47
  L 340.07 947.65
  C 339.60 947.66 339.22 947.28 339.23 946.81
  L 339.39 939.79
  C 339.40 939.31 339.79 938.92 340.27 938.92
  L 352.51 938.89
  C 352.94 938.89 353.29 938.54 353.29 938.11
  L 353.26 934.45
  C 353.26 934.03 352.91 933.68 352.48 933.68
  L 340.07 933.63
  C 339.65 933.63 339.32 933.30 339.32 932.88
  L 339.32 926.67
  C 339.32 926.25 339.66 925.91 340.07 925.91
  L 354.66 925.86
  C 355.08 925.86 355.42 925.52 355.42 925.11
  L 355.46 920.88
  C 355.46 920.41 355.08 920.03 354.61 920.04
  L 333.55 920.14
  C 333.07 920.14 332.69 920.52 332.70 921.00
  Z
  M 427.27 920.67
  C 427.27 920.28 426.95 919.96 426.56 919.97
  L 405.13 920.12
  C 404.74 920.13 404.42 920.45 404.43 920.84
  L 404.65 952.54
  C 404.66 952.93 404.98 953.25 405.37 953.24
  L 427.17 953.09
  C 427.56 953.08 427.88 952.76 427.87 952.37
  L 427.85 948.29
  C 427.84 947.90 427.52 947.58 427.13 947.59
  L 411.84 947.70
  C 411.45 947.71 411.13 947.39 411.12 947.00
  L 411.07 939.71
  C 411.06 939.32 411.38 939.00 411.77 938.99
  L 424.43 938.91
  C 424.82 938.90 425.14 938.58 425.13 938.19
  L 425.11 934.33
  C 425.10 933.94 424.78 933.62 424.39 933.63
  L 411.84 933.71
  C 411.45 933.72 411.13 933.40 411.13 933.01
  L 411.08 926.64
  C 411.08 926.25 411.40 925.93 411.79 925.92
  L 426.60 925.82
  C 426.99 925.81 427.31 925.49 427.31 925.10
  L 427.27 920.67
  Z
  M 481.02 935.80
  C 482.13 935.06 482.92 934.10 483.38 932.91
  C 485.45 927.58 483.17 920.53 476.75 920.28
  C 470.83 920.05 465.12 920.01 459.61 920.16
  C 459.24 920.17 458.94 920.48 458.94 920.85
  L 458.94 952.07
  C 458.94 952.64 459.40 953.10 459.97 953.11
  C 465.52 953.14 471.00 953.05 476.41 952.82
  C 481.59 952.60 485.97 949.02 485.49 943.45
  C 485.24 940.44 483.76 938.17 481.05 936.62
  C 480.74 936.45 480.72 936.00 481.02 935.80
  Z
  M 504.07 940.41
  L 503.93 925.73
  L 504.08 920.85
  C 504.09 920.40 503.73 920.03 503.28 920.03
  L 498.08 920.03
  C 497.63 920.03 497.26 920.40 497.25 920.85
  C 497.16 928.24 497.20 934.69 497.36 940.21
  C 497.54 946.25 501.23 951.76 507.47 952.98
  C 516.72 954.79 524.66 951.22 525.77 940.89
  C 526.04 938.36 526.16 931.70 526.13 920.90
  C 526.13 920.48 525.79 920.14 525.36 920.14
  L 520.07 920.14
  C 519.66 920.14 519.32 920.49 519.34 920.90
  C 519.44 924.16 519.51 928.69 519.55 934.50
  C 519.57 937.18 519.35 939.59 518.90 941.72
  C 517.85 946.65 513.32 948.99 508.74 947.26
  C 506.07 946.25 504.52 943.97 504.07 940.41
  Z
  M 546.5323 920.7141
  C 546.53 920.36 546.24 920.06 545.8811 920.0653
  L 540.4212 920.0748
  C 540.06 920.08 539.77 920.37 539.7723 920.7259
  L 539.8277 952.4859
  C 539.83 952.84 540.12 953.14 540.4789 953.1347
  L 545.9388 953.1252
  C 546.30 953.12 546.59 952.83 546.5877 952.4741
  L 546.5323 920.7141
  Z
  M 567.42 946.75
  L 567.52 920.74
  C 567.52 920.40 567.23 920.12 566.89 920.13
  L 561.68 920.17
  C 561.32 920.18 561.03 920.47 561.03 920.82
  L 561.12 952.55
  C 561.12 952.88 561.40 953.14 561.73 953.14
  L 583.01 953.09
  C 583.44 953.09 583.79 952.75 583.80 952.33
  L 583.90 948.18
  C 583.91 947.77 583.59 947.44 583.18 947.44
  L 568.20 947.52
  C 567.77 947.52 567.42 947.18 567.42 946.75
  Z
  M 601.82 953.16
  C 603.40 953.16 604.28 953.16 604.47 953.15
  C 604.79 953.15 605.04 952.88 605.04 952.56
  L 605.04 926.45
  C 605.04 926.13 605.30 925.87 605.63 925.87
  L 614.67 925.87
  C 615.14 925.87 615.52 925.48 615.52 925.01
  L 615.52 920.89
  C 615.52 920.43 615.16 920.06 614.70 920.05
  C 610.55 919.99 606.27 919.96 601.85 919.97
  C 597.43 919.95 593.15 919.97 589.00 920.03
  C 588.55 920.04 588.18 920.41 588.18 920.87
  L 588.17 924.99
  C 588.17 925.46 588.55 925.85 589.02 925.85
  L 598.06 925.86
  C 598.39 925.86 598.65 926.12 598.65 926.44
  L 598.60 952.55
  C 598.60 952.88 598.86 953.14 599.18 953.15
  C 599.37 953.15 600.25 953.16 601.82 953.16
  Z
  M 683.08 920.75
  C 683.08 920.36 682.76 920.04 682.37 920.04
  L 661.60 920.04
  C 661.21 920.04 660.89 920.36 660.89 920.75
  L 660.89 952.47
  C 660.89 952.86 661.21 953.18 661.60 953.18
  L 666.61 953.18
  C 667.00 953.18 667.32 952.86 667.32 952.47
  L 667.32 940.02
  C 667.32 939.63 667.64 939.31 668.03 939.31
  L 680.19 939.31
  C 680.58 939.31 680.90 938.99 680.90 938.60
  L 680.90 934.59
  C 680.90 934.20 680.58 933.88 680.19 933.88
  L 668.05 933.88
  C 667.66 933.88 667.34 933.56 667.34 933.17
  L 667.34 926.42
  C 667.34 926.03 667.66 925.71 668.05 925.71
  L 682.37 925.71
  C 682.76 925.71 683.08 925.39 683.08 925.00
  L 683.08 920.75
  Z
  M 702.0521 920.6442
  C 702.05 920.36 701.82 920.13 701.5412 920.1351
  L 695.8612 920.1450
  C 695.58 920.15 695.35 920.37 695.3521 920.6559
  L 695.4079 952.6358
  C 695.41 952.92 695.64 953.15 695.9188 953.1449
  L 701.5988 953.1350
  C 701.88 953.13 702.11 952.91 702.1079 952.6241
  L 702.0521 920.6442
  Z
  M 715.84 920.90
  L 715.94 952.30
  C 715.95 952.66 716.24 952.94 716.59 952.94
  L 738.08 952.97
  C 738.58 952.97 739.00 952.57 739.02 952.07
  L 739.13 948.26
  C 739.14 947.79 738.76 947.39 738.28 947.40
  L 723.14 947.54
  C 722.67 947.55 722.30 947.17 722.31 946.70
  L 722.48 939.68
  C 722.49 939.20 722.88 938.82 723.37 938.82
  L 735.59 938.82
  C 736.02 938.82 736.36 938.47 736.36 938.04
  L 736.35 934.39
  C 736.35 933.96 736.00 933.61 735.57 933.61
  L 723.18 933.54
  C 722.76 933.54 722.42 933.20 722.42 932.78
  L 722.44 926.58
  C 722.44 926.16 722.78 925.82 723.19 925.82
  L 737.77 925.81
  C 738.19 925.81 738.52 925.47 738.53 925.05
  L 738.57 920.83
  C 738.58 920.37 738.20 919.98 737.73 919.99
  L 716.68 920.04
  C 716.21 920.04 715.83 920.42 715.84 920.90
  Z
  M 757.84 946.67
  L 757.95 920.65
  C 757.95 920.31 757.66 920.03 757.32 920.03
  L 752.10 920.08
  C 751.74 920.08 751.45 920.37 751.45 920.73
  L 751.53 952.47
  C 751.53 952.80 751.81 953.07 752.14 953.07
  L 773.44 953.03
  C 773.86 953.03 774.21 952.69 774.22 952.26
  L 774.33 948.11
  C 774.34 947.71 774.01 947.37 773.61 947.37
  L 758.62 947.45
  C 758.19 947.45 757.84 947.10 757.84 946.67
  Z
  M 785.88 920.55
  L 785.94 952.55
  C 785.94 952.85 786.18 953.09 786.48 953.09
  L 798.06 953.07
  C 806.86 953.06 813.99 946.07 813.97 937.46
  L 813.97 935.56
  C 813.95 926.95 806.80 919.98 798.00 919.99
  L 786.42 920.01
  C 786.12 920.01 785.88 920.26 785.88 920.55
  Z
  M 846.77 953.13
  L 851.60 953.13
  C 851.98 953.13 852.29 952.82 852.29 952.44
  L 852.29 942.49
  C 852.29 942.28 852.46 942.11 852.67 942.11
  C 859.41 942.09 866.89 943.03 869.70 935.20
  C 872.46 927.49 867.52 919.91 859.01 920.03
  C 856.54 920.06 852.44 920.08 846.69 920.07
  C 846.38 920.07 846.13 920.32 846.13 920.63
  L 846.13 952.50
  C 846.13 952.85 846.42 953.13 846.77 953.13
  Z
  M 908.80 952.24
  L 901.89 941.62
  C 901.71 941.34 901.76 940.97 902.02 940.77
  C 904.65 938.63 906.78 937.41 907.37 933.66
  C 908.46 926.71 905.72 922.28 899.15 920.37
  C 898.79 920.26 898.42 920.21 898.05 920.20
  L 882.94 920.00
  C 882.59 919.99 882.30 920.28 882.30 920.63
  L 882.30 952.29
  C 882.30 952.75 882.67 953.13 883.13 953.13
  L 888.01 953.13
  C 888.47 953.13 888.84 952.76 888.84 952.30
  L 888.84 942.82
  C 888.84 942.40 889.18 942.06 889.60 942.06
  L 894.22 942.06
  C 894.72 942.06 895.18 942.31 895.45 942.73
  L 901.56 952.10
  C 901.99 952.77 902.73 953.17 903.52 953.17
  L 908.30 953.17
  C 908.78 953.17 909.06 952.64 908.80 952.24
  Z
  M 974.08 953.09
  C 975.81 953.09 976.68 953.09 976.70 953.08
  C 977.03 952.97 977.29 952.71 977.41 952.39
  L 989.90 920.33
  C 989.94 920.23 989.86 920.12 989.75 920.12
  L 983.20 920.12
  C 983.07 920.12 982.95 920.20 982.90 920.33
  L 974.44 944.52
  C 974.43 944.55 974.41 944.57 974.39 944.59
  C 974.30 944.67 974.20 944.71 974.09 944.71
  C 973.98 944.71 973.88 944.67 973.79 944.59
  C 973.77 944.57 973.75 944.55 973.74 944.52
  L 965.30 920.32
  C 965.25 920.20 965.13 920.11 965.00 920.11
  L 958.45 920.11
  C 958.34 920.11 958.26 920.22 958.30 920.32
  L 970.76 952.39
  C 970.88 952.71 971.14 952.96 971.47 953.08
  C 971.49 953.08 972.36 953.09 974.08 953.09
  Z
  M 1000.85 920.87
  L 1000.86 952.32
  C 1000.87 952.68 1001.16 952.96 1001.51 952.96
  L 1023.03 953.05
  C 1023.54 953.05 1023.95 952.66 1023.97 952.16
  L 1024.10 948.34
  C 1024.11 947.86 1023.73 947.47 1023.25 947.47
  L 1008.09 947.57
  C 1007.62 947.58 1007.24 947.20 1007.25 946.73
  L 1007.44 939.70
  C 1007.46 939.22 1007.85 938.84 1008.34 938.84
  L 1020.58 938.87
  C 1021.01 938.88 1021.35 938.53 1021.36 938.09
  L 1021.35 934.44
  C 1021.36 934.01 1021.00 933.66 1020.57 933.66
  L 1008.16 933.55
  C 1007.74 933.55 1007.40 933.21 1007.41 932.79
  L 1007.44 926.57
  C 1007.45 926.16 1007.78 925.82 1008.19 925.82
  L 1022.80 925.85
  C 1023.21 925.85 1023.55 925.51 1023.56 925.09
  L 1023.61 920.87
  C 1023.62 920.40 1023.24 920.02 1022.77 920.02
  L 1001.70 920.01
  C 1001.22 920.01 1000.84 920.40 1000.85 920.87
  Z
  M 1048.53 938.48
  C 1051.51 942.39 1054.98 947.06 1058.95 952.50
  C 1059.27 952.94 1059.78 953.20 1060.32 953.20
  L 1064.55 953.20
  C 1064.93 953.20 1065.23 952.90 1065.23 952.53
  L 1065.23 920.81
  C 1065.23 920.48 1064.97 920.22 1064.65 920.22
  L 1059.33 920.22
  C 1058.97 920.22 1058.68 920.51 1058.68 920.87
  L 1058.68 940.89
  C 1058.68 941.28 1058.19 941.44 1057.96 941.13
  C 1055.43 937.71 1053.88 935.62 1053.31 934.87
  C 1050.32 930.96 1046.85 926.29 1042.88 920.84
  C 1042.56 920.41 1042.05 920.15 1041.51 920.15
  L 1037.28 920.15
  C 1036.91 920.15 1036.60 920.45 1036.60 920.82
  L 1036.60 952.54
  C 1036.60 952.86 1036.86 953.13 1037.18 953.13
  L 1042.50 953.13
  C 1042.86 953.13 1043.15 952.84 1043.15 952.48
  L 1043.15 932.46
  C 1043.15 932.07 1043.65 931.91 1043.88 932.22
  C 1046.40 935.64 1047.95 937.73 1048.53 938.48
  Z
  M 1085.5335 948.9262
  C 1085.47 947.22 1084.04 945.89 1082.3324 945.9515
  L 1081.7328 945.9735
  C 1080.03 946.04 1078.70 947.47 1078.7581 949.1747
  L 1078.8065 950.4938
  C 1078.87 952.20 1080.30 953.53 1082.0076 953.4685
  L 1082.6072 953.4465
  C 1084.31 953.38 1085.64 951.95 1085.5819 950.2453
  L 1085.5335 948.9262
  Z
  M 625.4795 946.1499
  C 623.62 946.35 622.29 948.12 622.4985 950.1233
  C 622.71 952.12 624.38 953.59 626.2405 953.3901
  C 628.10 953.19 629.43 951.42 629.2215 949.4167
  C 629.01 947.42 627.34 945.95 625.4795 946.1499
  Z"
/>
<path fill="#0063fd" d="
  M 914.20 447.53
  C 906.57 449.20 897.59 451.28 887.27 453.78
  C 883.33 454.73 879.07 455.27 875.07 456.12
  C 863.25 458.65 851.46 461.26 839.69 463.97
  C 816.70 469.25 802.26 472.09 776.27 477.75
  C 771.58 478.77 762.22 480.69 748.19 483.51
  C 730.90 486.98 712.01 491.23 691.51 496.28
  C 684.60 497.97 669.70 502.01 646.80 508.38
  C 506.57 547.41 435.79 567.14 434.45 567.57
  C 434.42 567.58 428.64 569.30 417.11 572.71
  C 411.33 574.42 405.44 575.96 399.45 577.32
  C 399.17 577.39 398.96 577.05 399.15 576.83
  C 403.08 572.30 405.87 568.06 409.87 563.62
  C 413.35 559.77 416.43 556.03 419.10 552.42
  C 420.89 550.00 423.35 547.53 425.69 544.70
  C 439.48 528.00 450.88 514.14 459.88 503.12
  C 460.97 501.79 462.30 500.42 463.88 499.01
  C 464.24 498.69 464.69 498.49 465.17 498.43
  L 592.50 482.99
  C 592.88 482.94 593.18 482.65 593.22 482.27
  L 612.12 317.45
  C 612.17 317.03 611.84 316.66 611.42 316.66
  L 589.04 316.66
  C 588.31 316.66 587.61 316.96 587.11 317.49
  C 572.10 333.32 557.77 348.77 544.10 363.85
  C 508.92 402.66 479.16 436.15 454.83 464.32
  C 438.75 482.93 428.09 495.44 422.85 501.84
  C 419.62 505.79 381.06 551.75 307.15 639.71
  C 306.55 640.41 305.68 640.82 304.76 640.82
  L 211.63 640.82
  C 211.13 640.82 210.86 640.24 211.17 639.86
  C 216.19 633.70 220.71 628.81 225.56 623.01
  C 253.34 589.78 289.57 547.12 334.26 495.02
  C 352.23 474.07 362.41 462.18 364.82 459.34
  C 374.37 448.07 388.43 431.54 406.98 409.74
  C 469.07 336.79 506.21 293.27 518.42 279.16
  C 519.99 277.35 523.92 272.90 530.21 265.81
  C 530.60 265.37 531.16 265.12 531.75 265.12
  L 704.65 265.12
  C 705.00 265.12 705.27 265.43 705.24 265.78
  L 692.94 391.66
  C 692.92 391.91 693.24 392.03 693.39 391.83
  C 720.40 356.91 747.61 322.47 775.02 288.52
  C 777.05 286.00 778.93 283.75 780.64 281.78
  C 781.11 281.24 781.79 280.93 782.51 280.93
  L 923.59 280.93
  C 924.22 280.93 924.76 281.37 924.88 281.99
  C 926.09 288.10 932.40 320.94 943.82 380.51
  C 948.08 402.73 951.28 419.04 953.42 429.43
  C 958.97 456.40 962.25 472.69 963.26 478.31
  C 966.94 498.75 975.44 535.42 979.04 556.48
  C 979.39 558.55 984.50 583.62 994.35 631.67
  C 994.96 634.68 995.42 637.54 995.73 640.25
  C 995.76 640.54 995.53 640.79 995.24 640.79
  L 910.36 640.79
  C 909.87 640.79 909.46 640.44 909.37 639.97
  L 896.10 568.25
  C 896.04 567.94 895.77 567.71 895.46 567.71
  L 701.73 567.71
  C 701.46 567.71 701.30 567.40 701.46 567.18
  C 704.65 562.72 707.40 559.08 709.71 556.26
  C 717.64 546.60 728.34 532.85 749.47 506.23
  C 751.67 503.46 753.51 501.39 754.98 500.02
  C 755.43 499.60 756.02 499.37 756.64 499.36
  L 878.52 498.48
  C 879.03 498.47 879.41 498.01 879.32 497.51
  L 872.78 462.17
  C 872.65 461.46 873.07 460.76 873.76 460.54
  L 914.30 447.88
  C 914.33 447.87 914.35 447.84 914.34 447.81
  L 914.26 447.57
  C 914.25 447.54 914.23 447.52 914.20 447.53
  Z
  M 722.67 474.59
  C 722.48 474.85 722.69 475.21 723.01 475.16
  L 870.59 452.72
  C 870.97 452.66 871.22 452.30 871.15 451.93
  L 849.00 332.21
  C 848.95 331.97 848.74 331.79 848.50 331.79
  L 837.60 331.79
  C 837.05 331.79 836.53 332.04 836.19 332.48
  C 831.15 338.97 825.72 344.89 819.83 352.11
  C 785.81 393.76 754.30 432.95 722.67 474.59
  Z"
/>
<path fill="none" d="
  M 722.67 474.59
  C 754.30 432.95 785.81 393.76 819.83 352.11
  C 825.72 344.89 831.15 338.97 836.19 332.48
  C 836.53 332.04 837.05 331.79 837.60 331.79
  L 848.50 331.79
  C 848.74 331.79 848.95 331.97 849.00 332.21
  L 871.15 451.93
  C 871.22 452.30 870.97 452.66 870.59 452.72
  L 723.01 475.16
  C 722.69 475.21 722.48 474.85 722.67 474.59
  Z"
/>
<path fill="#0063fd" d="
  M 610.04 640.80
  L 518.38 640.80
  C 517.93 640.80 517.67 640.29 517.94 639.92
  L 593.97 536.67
  C 594.04 536.58 594.14 536.51 594.25 536.48
  L 707.95 500.46
  C 708.45 500.30 708.86 500.87 708.56 501.30
  L 610.49 640.57
  C 610.39 640.71 610.22 640.80 610.04 640.80
  Z"
/>
<path fill="#ffffff" d="
  M 104.54 774.04
  C 104.34 774.04 104.21 773.82 104.31 773.65
  L 141.63 704.46
  C 141.92 703.92 142.34 703.47 142.85 703.16
  C 146.30 701.03 154.22 701.54 158.00 701.96
  C 159.52 702.13 160.67 702.92 161.44 704.34
  C 173.83 727.19 186.08 750.21 198.19 773.38
  C 198.34 773.66 198.13 774.00 197.81 774.00
  L 182.79 774.00
  C 182.01 774.00 181.30 773.55 180.96 772.85
  L 174.60 759.85
  C 174.45 759.54 174.12 759.34 173.77 759.34
  L 129.94 759.34
  C 129.44 759.34 128.97 759.61 128.74 760.05
  L 121.67 773.15
  C 121.37 773.70 120.80 774.04 120.18 774.04
  L 104.54 774.04
  Z
  M 135.90 745.89
  C 135.74 746.20 135.96 746.57 136.31 746.57
  L 166.93 746.57
  C 167.28 746.57 167.50 746.20 167.34 745.89
  L 152.03 716.95
  C 151.85 716.62 151.39 716.62 151.21 716.95
  L 135.90 745.89
  Z"
/>
<path fill="#ffffff" d="
  M 255.33 701.82
  C 286.48 701.87 304.91 701.87 310.64 701.81
  C 317.83 701.73 322.72 701.61 327.37 705.16
  C 334.36 710.48 333.42 718.49 333.07 727.00
  C 332.90 731.37 331.04 734.75 327.49 737.14
  C 327.20 737.33 327.21 737.76 327.51 737.94
  C 334.64 742.07 333.66 749.01 333.71 756.48
  C 333.73 759.69 333.38 762.15 332.66 763.88
  C 329.19 772.25 322.11 774.14 313.75 774.11
  C 297.33 774.07 277.86 774.07 255.35 774.12
  C 254.95 774.12 254.63 773.80 254.63 773.40
  L 254.63 702.53
  C 254.63 702.14 254.94 701.82 255.33 701.82
  Z
  M 269.74 716.74
  L 269.76 730.36
  C 269.76 730.73 270.06 731.03 270.43 731.03
  L 312.73 730.96
  C 316.27 730.95 319.14 728.34 319.13 725.12
  L 319.13 721.82
  C 319.12 718.60 316.25 715.99 312.71 716.00
  L 270.41 716.07
  C 270.04 716.07 269.74 716.37 269.74 716.74
  Z
  M 269.76 744.46
  L 269.78 759.00
  C 269.78 759.37 270.08 759.66 270.44 759.66
  L 313.36 759.59
  C 316.61 759.58 319.24 757.00 319.23 753.83
  L 319.23 749.47
  C 319.22 746.29 316.58 743.72 313.34 743.73
  L 270.42 743.80
  C 270.05 743.80 269.76 744.10 269.76 744.46
  Z"
/>
<path fill="#ffffff" d="
  M 397.15 759.98
  C 397.15 759.78 397.32 759.61 397.52 759.61
  C 417.65 759.58 435.47 759.58 451.00 759.60
  C 454.29 759.61 456.15 758.10 456.56 755.07
  C 457.18 750.44 457.80 743.91 451.48 743.84
  C 446.07 743.78 434.66 743.77 417.25 743.81
  C 413.34 743.82 410.44 743.55 408.53 743.02
  C 396.18 739.57 396.61 728.24 397.13 717.32
  C 397.69 705.68 407.64 701.46 417.87 701.74
  C 421.98 701.85 438.90 701.87 468.63 701.81
  C 468.93 701.81 469.17 702.05 469.17 702.35
  L 469.27 715.42
  C 469.27 715.71 469.04 715.94 468.75 715.94
  C 451.78 716.09 435.45 716.12 419.76 716.01
  C 412.14 715.95 410.60 719.12 411.67 726.44
  C 412.10 729.36 413.97 730.84 417.29 730.87
  C 433.22 731.04 443.54 731.07 448.26 730.96
  C 454.97 730.81 459.57 731.32 462.07 732.50
  C 466.60 734.64 469.57 738.29 470.97 743.44
  C 471.12 744.00 471.20 744.57 471.19 745.15
  C 471.16 750.36 471.16 753.25 471.19 753.80
  C 471.36 757.58 471.12 760.36 470.46 762.14
  C 467.39 770.42 460.96 774.08 452.12 774.11
  C 446.92 774.14 428.84 774.14 397.89 774.12
  C 397.54 774.12 397.25 773.84 397.25 773.49
  L 397.15 759.98
  Z"
/>
<path fill="#ffffff" d="
  M 616.92 721.84
  L 616.92 754.05
  C 616.92 765.12 607.95 774.09 596.88 774.09
  L 552.52 774.09
  C 541.45 774.09 532.48 765.12 532.48 754.05
  L 532.48 721.84
  C 532.48 710.77 541.45 701.80 552.52 701.80
  L 596.88 701.80
  C 607.95 701.80 616.92 710.77 616.92 721.84
  Z
  M 601.7755 723.7826
  C 601.77 719.50 598.29 716.03 594.0020 716.0361
  L 555.1421 716.1039
  C 550.86 716.11 547.39 719.59 547.3956 723.8775
  L 547.4445 751.8774
  C 547.45 756.16 550.93 759.63 555.2180 759.6239
  L 594.0779 759.5561
  C 598.36 759.55 601.83 756.07 601.8244 751.7825
  L 601.7755 723.7826
  Z"
/>
<path fill="#ffffff" d="
  M 744.87 760.21
  L 744.87 773.31
  C 744.87 773.74 744.53 774.08 744.10 774.08
  C 708.59 774.07 690.72 774.06 690.49 774.07
  C 682.95 774.12 678.01 771.44 675.67 766.04
  C 674.41 763.14 673.90 757.88 674.15 750.27
  C 674.20 748.64 674.21 732.63 674.16 702.26
  C 674.16 702.02 674.36 701.82 674.60 701.82
  L 688.75 701.82
  C 689.14 701.82 689.45 702.13 689.46 702.51
  C 689.59 716.80 689.61 733.69 689.52 753.20
  C 689.52 754.93 689.36 756.73 690.06 758.25
  C 690.44 759.07 691.25 759.59 692.15 759.59
  L 744.24 759.59
  C 744.59 759.59 744.87 759.87 744.87 760.21
  Z"
/>
<path fill="#ffffff" d="
  M 885.78 702.50
  C 885.80 720.74 885.75 737.65 885.64 753.24
  C 885.54 766.49 877.93 773.36 865.63 773.98
  C 862.78 774.12 859.66 774.18 856.26 774.16
  C 846.25 774.08 837.17 774.09 829.01 774.18
  C 819.57 774.29 810.71 768.67 807.75 759.58
  C 807.15 757.73 806.85 754.49 806.86 749.85
  C 806.91 730.69 806.94 714.90 806.95 702.49
  C 806.95 702.13 807.25 701.83 807.61 701.83
  L 821.61 701.83
  C 821.89 701.83 822.11 702.05 822.12 702.33
  C 822.19 720.88 822.19 737.11 822.12 751.03
  C 822.11 754.20 823.33 756.61 825.79 758.27
  C 827.18 759.21 829.93 759.66 834.04 759.63
  C 843.33 759.54 852.16 759.55 860.52 759.66
  C 867.20 759.74 870.53 756.43 870.52 749.73
  C 870.47 725.38 870.49 709.63 870.60 702.48
  C 870.61 702.09 870.92 701.77 871.31 701.77
  L 885.06 701.77
  C 885.46 701.77 885.78 702.10 885.78 702.50
  Z"
/>
<path fill="#ffffff" d="
  M 990.04 774.11
  L 976.67 774.11
  C 976.21 774.11 975.84 773.74 975.84 773.28
  L 975.84 716.82
  C 975.84 716.36 975.47 715.99 975.01 715.99
  L 947.27 715.99
  C 946.81 715.99 946.44 715.62 946.44 715.16
  L 946.44 702.68
  C 946.44 702.22 946.81 701.85 947.27 701.85
  L 1020.67 701.85
  C 1021.13 701.85 1021.50 702.22 1021.50 702.68
  L 1021.50 715.21
  C 1021.50 715.67 1021.13 716.04 1020.67 716.04
  L 991.70 716.04
  C 991.24 716.04 990.87 716.41 990.87 716.87
  L 990.87 773.28
  C 990.87 773.74 990.50 774.11 990.04 774.11
  Z"
/>
<path fill="#ffffff" d="
  M 1150.38 774.10
  L 1080.11 774.10
  C 1079.72 774.10 1079.40 773.78 1079.40 773.39
  L 1079.40 702.55
  C 1079.40 702.16 1079.72 701.84 1080.11 701.84
  L 1150.38 701.84
  C 1150.77 701.84 1151.09 702.16 1151.09 702.55
  L 1151.09 715.32
  C 1151.09 715.71 1150.77 716.03 1150.38 716.03
  L 1095.60 716.03
  C 1095.21 716.03 1094.89 716.35 1094.89 716.74
  L 1094.89 730.26
  C 1094.89 730.65 1095.21 730.97 1095.60 730.97
  L 1148.74 730.97
  C 1149.13 730.97 1149.45 731.29 1149.45 731.68
  L 1149.45 743.09
  C 1149.45 743.48 1149.13 743.80 1148.74 743.80
  L 1095.57 743.80
  C 1095.18 743.80 1094.86 744.12 1094.86 744.51
  L 1094.86 758.90
  C 1094.86 759.29 1095.18 759.61 1095.57 759.61
  L 1150.38 759.61
  C 1150.77 759.61 1151.09 759.93 1151.09 760.32
  L 1151.09 773.39
  C 1151.09 773.78 1150.77 774.10 1150.38 774.10
  Z"
/>
<path fill="none" d="
  M 269.74 716.74
  C 269.74 716.37 270.04 716.07 270.41 716.07
  L 312.71 716.00
  C 316.25 715.99 319.12 718.60 319.13 721.82
  L 319.13 725.12
  C 319.14 728.34 316.27 730.95 312.73 730.96
  L 270.43 731.03
  C 270.06 731.03 269.76 730.73 269.76 730.36
  L 269.74 716.74
  Z"
/>
<rect fill="none" x="-27.19" y="-21.76" transform="translate(574.61,737.83) rotate(-0.1)" width="54.38" height="43.52" rx="7.76"/>
<path fill="none" d="
  M 135.90 745.89
  L 151.21 716.95
  C 151.39 716.62 151.85 716.62 152.03 716.95
  L 167.34 745.89
  C 167.50 746.20 167.28 746.57 166.93 746.57
  L 136.31 746.57
  C 135.96 746.57 135.74 746.20 135.90 745.89
  Z"
/>
<path fill="none" d="
  M 269.76 744.46
  C 269.76 744.10 270.05 743.80 270.42 743.80
  L 313.34 743.73
  C 316.58 743.72 319.22 746.29 319.23 749.47
  L 319.23 753.83
  C 319.24 757.00 316.61 759.58 313.36 759.59
  L 270.44 759.66
  C 270.08 759.66 269.78 759.37 269.78 759.00
  L 269.76 744.46
  Z"
/>
<path fill="#0063fd" d="
  M 422.51 866.80
  C 420.72 866.79 419.06 866.73 417.53 866.62
  C 417.30 866.60 417.11 866.41 417.11 866.17
  L 417.11 827.23
  C 417.11 827.00 416.93 826.82 416.70 826.82
  L 399.57 826.82
  C 399.25 826.82 398.99 826.56 398.99 826.24
  L 398.99 817.91
  C 398.99 817.54 399.30 817.23 399.67 817.24
  C 402.98 817.29 406.34 817.32 409.75 817.33
  C 414.40 817.35 418.69 817.37 422.62 817.37
  C 426.55 817.38 430.84 817.39 435.49 817.39
  C 438.91 817.39 442.27 817.37 445.57 817.34
  C 445.95 817.34 446.25 817.64 446.25 818.01
  L 446.21 826.34
  C 446.21 826.66 445.95 826.92 445.63 826.92
  L 428.50 826.85
  C 428.27 826.84 428.09 827.03 428.09 827.25
  L 427.92 866.19
  C 427.92 866.43 427.73 866.63 427.49 866.64
  C 425.97 866.75 424.31 866.80 422.51 866.80
  Z"
/>
<path fill="#0063fd" d="
  M 522.67 837.76
  C 526.98 837.77 531.20 837.71 535.32 837.59
  C 535.73 837.58 536.05 837.25 536.05 836.84
  L 536.05 818.14
  C 536.05 817.73 536.38 817.39 536.80 817.39
  L 546.58 817.39
  C 546.90 817.39 547.17 817.65 547.18 817.98
  C 547.31 822.57 547.37 830.59 547.37 842.04
  C 547.36 853.49 547.29 861.52 547.15 866.10
  C 547.14 866.43 546.88 866.69 546.55 866.69
  L 536.77 866.68
  C 536.36 866.68 536.02 866.35 536.02 865.93
  L 536.04 847.23
  C 536.04 846.83 535.72 846.49 535.32 846.48
  C 531.19 846.36 526.98 846.30 522.67 846.30
  C 518.36 846.29 514.14 846.35 510.02 846.47
  C 509.61 846.48 509.29 846.81 509.29 847.22
  L 509.29 865.92
  C 509.29 866.33 508.95 866.67 508.54 866.67
  L 498.76 866.67
  C 498.44 866.67 498.17 866.41 498.16 866.08
  C 498.03 861.49 497.96 853.47 497.97 842.02
  C 497.98 830.57 498.05 822.55 498.18 817.96
  C 498.20 817.63 498.46 817.37 498.78 817.37
  L 508.56 817.38
  C 508.98 817.38 509.31 817.71 509.31 818.13
  L 509.29 836.83
  C 509.29 837.23 509.62 837.57 510.02 837.58
  C 514.15 837.70 518.36 837.76 522.67 837.76
  Z"
/>
<path fill="#0063fd" d="
  M 603.44 817.28
  L 613.16 817.28
  C 613.39 817.28 613.58 817.46 613.58 817.69
  L 613.84 854.35
  C 613.85 854.47 613.88 854.59 613.94 854.70
  C 614.59 855.83 615.70 856.38 617.27 856.33
  C 627.75 856.03 637.49 856.06 646.50 856.42
  C 646.88 856.43 647.18 856.74 647.19 857.12
  L 647.25 866.03
  C 647.25 866.36 646.98 866.63 646.65 866.64
  C 632.06 866.75 621.97 866.82 614.18 866.54
  C 607.19 866.30 602.86 861.86 602.77 854.71
  C 602.67 847.08 602.66 834.84 602.74 817.98
  C 602.74 817.59 603.05 817.28 603.44 817.28
  Z"
/>
<path fill="#0063fd" d="
  M 744.04 856.38
  C 744.47 856.38 744.81 856.72 744.81 857.15
  L 744.81 865.79
  C 744.81 866.17 744.51 866.47 744.14 866.47
  L 700.48 866.79
  C 700.20 866.79 699.97 866.56 699.97 866.27
  L 699.97 817.59
  C 699.97 817.39 700.14 817.22 700.34 817.22
  L 744.09 817.22
  C 744.61 817.22 745.04 817.65 745.04 818.17
  L 745.04 825.88
  C 745.04 826.42 744.60 826.85 744.06 826.85
  L 711.83 826.85
  C 711.33 826.85 710.93 827.25 710.93 827.75
  L 710.93 836.51
  C 710.93 837.27 711.59 837.87 712.35 837.81
  C 720.32 837.14 728.53 837.11 736.99 837.72
  C 738.46 837.83 740.26 837.75 742.38 837.48
  C 743.36 837.36 744.23 838.13 744.23 839.12
  L 744.23 845.02
  C 744.23 846.03 743.37 846.83 742.36 846.76
  C 736.67 846.38 730.55 846.40 724.00 846.81
  C 719.76 847.08 715.81 846.98 712.14 846.52
  C 711.60 846.45 711.11 846.88 711.12 847.43
  L 711.17 855.28
  C 711.18 855.89 711.67 856.38 712.28 856.38
  L 744.04 856.38
  Z"
/>
<path fill="#0063fd" d="
  M 942.81 866.31
  C 942.81 866.48 942.68 866.61 942.51 866.61
  L 898.92 866.61
  C 898.56 866.61 898.27 866.32 898.27 865.96
  L 898.27 817.77
  C 898.27 817.47 898.52 817.23 898.82 817.23
  L 942.39 817.23
  C 942.69 817.23 942.93 817.47 942.93 817.77
  L 942.93 826.31
  C 942.93 826.62 942.67 826.88 942.36 826.88
  L 909.50 826.88
  C 909.31 826.88 909.15 827.03 909.15 827.22
  L 909.15 836.80
  C 909.15 837.26 909.53 837.63 909.99 837.63
  L 941.22 837.63
  C 941.50 837.63 941.73 837.86 941.73 838.15
  L 941.73 845.99
  C 941.73 846.23 941.53 846.42 941.29 846.41
  C 935.26 846.29 928.16 846.47 920.01 846.94
  C 917.60 847.08 914.29 846.94 910.10 846.51
  C 909.65 846.46 909.25 846.82 909.25 847.27
  L 909.25 855.29
  C 909.25 855.88 909.72 856.35 910.31 856.35
  L 942.19 856.35
  C 942.53 856.35 942.81 856.63 942.81 856.97
  L 942.81 866.31
  Z"
/>
<path fill="#0063fd" d="
  M 359.93 866.58
  L 349.48 866.58
  C 349.10 866.58 348.74 866.36 348.58 866.01
  L 344.17 857.00
  C 344.04 856.74 343.78 856.57 343.49 856.57
  L 316.62 856.57
  C 316.00 856.57 315.44 856.93 315.18 857.49
  L 311.28 865.89
  C 311.01 866.49 310.40 866.88 309.74 866.88
  L 299.40 866.88
  C 298.94 866.88 298.62 866.44 298.76 866.00
  C 299.09 864.99 299.53 864.03 300.08 863.10
  C 302.87 858.42 305.14 854.28 306.88 850.67
  C 310.48 843.22 313.95 836.54 317.29 830.62
  C 319.56 826.60 320.85 823.19 322.60 819.87
  C 323.03 819.05 323.94 818.29 325.31 817.60
  C 325.57 817.47 325.85 817.39 326.14 817.36
  C 331.29 816.92 335.67 816.33 338.25 821.52
  C 340.85 826.74 342.70 831.19 345.71 836.44
  C 348.08 840.59 350.17 844.70 351.96 848.78
  C 355.05 855.81 357.63 860.33 360.39 865.83
  C 360.56 866.17 360.31 866.58 359.93 866.58
  Z
  M 329.95 848.31
  C 331.07 848.30 334.08 848.21 338.98 848.02
  C 339.29 848.01 339.49 847.68 339.35 847.40
  L 330.02 828.32
  C 330.00 828.28 329.95 828.26 329.88 828.26
  C 329.85 828.26 329.83 828.26 329.80 828.26
  C 329.78 828.26 329.75 828.26 329.73 828.26
  C 329.66 828.26 329.60 828.29 329.59 828.32
  L 320.53 847.54
  C 320.40 847.82 320.60 848.15 320.92 848.15
  C 325.82 848.27 328.83 848.32 329.95 848.31
  Z"
/>
<path fill="#0063fd" d="
  M 799.27 817.29
  L 846.13 817.29
  C 846.33 817.29 846.49 817.45 846.49 817.64
  L 846.55 826.59
  C 846.55 826.72 846.45 826.82 846.32 826.82
  L 828.02 826.82
  C 827.71 826.82 827.47 827.09 827.51 827.39
  C 827.82 829.97 827.95 832.42 827.90 834.75
  C 827.57 850.02 827.40 860.42 827.39 865.93
  C 827.39 866.26 827.12 866.53 826.79 866.53
  L 817.68 866.53
  C 817.30 866.53 817.00 866.23 817.00 865.85
  L 817.00 827.38
  C 817.00 827.09 816.77 826.86 816.49 826.86
  L 799.34 826.86
  C 798.99 826.86 798.71 826.58 798.71 826.23
  L 798.71 817.85
  C 798.71 817.54 798.96 817.29 799.27 817.29
  Z"
/>
<path fill="none" d="
  M 329.80 828.26
  C 329.83 828.26 329.85 828.26 329.88 828.26
  C 329.95 828.26 330.00 828.28 330.02 828.32
  L 339.35 847.40
  C 339.49 847.68 339.29 848.01 338.98 848.02
  C 334.08 848.21 331.07 848.30 329.95 848.31
  C 328.83 848.32 325.82 848.27 320.92 848.15
  C 320.60 848.15 320.40 847.82 320.53 847.54
  L 329.59 828.32
  C 329.60 828.29 329.66 828.26 329.73 828.26
  C 329.75 828.26 329.78 828.26 329.80 828.26
  Z"
/>
<rect fill="#0063fd" x="103.74" y="838.13" width="150.42" height="11.48" rx="0.73"/>
<rect fill="#0063fd" x="1000.93" y="838.13" width="150.34" height="11.48" rx="0.75"/>
<path fill="#ffffff" d="
  M 379.54 953.03
  C 377.97 953.03 377.09 953.03 376.90 953.03
  C 376.59 953.02 376.33 952.76 376.33 952.44
  L 376.31 926.43
  C 376.31 926.11 376.05 925.85 375.72 925.85
  L 366.72 925.86
  C 366.25 925.86 365.87 925.48 365.87 925.01
  L 365.87 920.90
  C 365.87 920.45 366.23 920.08 366.68 920.07
  C 370.81 920.00 375.08 919.97 379.48 919.98
  C 383.88 919.96 388.15 919.97 392.28 920.03
  C 392.73 920.03 393.10 920.40 393.10 920.86
  L 393.11 924.96
  C 393.11 925.43 392.73 925.82 392.26 925.82
  L 383.26 925.84
  C 382.94 925.84 382.67 926.10 382.67 926.42
  L 382.74 952.43
  C 382.74 952.75 382.49 953.01 382.17 953.02
  C 381.98 953.02 381.10 953.03 379.54 953.03
  Z"
/>
<path fill="#ffffff" d="
  M 934.2246 919.6531
  C 943.06 919.48 950.37 926.93 950.5471 936.2928
  C 950.73 945.65 943.71 953.38 934.8754 953.5469
  C 926.04 953.72 918.73 946.27 918.5529 936.9072
  C 918.37 927.55 925.39 919.82 934.2246 919.6531
  Z
  M 934.9453 925.5517
  C 929.77 925.46 925.49 930.40 925.3814 936.5765
  C 925.27 942.76 929.38 947.84 934.5547 947.9283
  C 939.73 948.02 944.01 943.08 944.1186 936.9035
  C 944.23 930.72 940.12 925.64 934.9453 925.5517
  Z"
/>
<path fill="#ffffff" d="
  M 196.32 920.00
  C 197.24 920.00 198.12 920.05 198.98 920.16
  C 199.28 920.20 199.54 920.40 199.65 920.69
  L 211.56 952.29
  C 211.71 952.68 211.42 953.09 211.01 953.09
  L 206.33 953.09
  C 205.82 953.09 205.36 952.77 205.17 952.29
  L 202.49 945.18
  C 202.37 944.85 202.06 944.62 201.71 944.60
  C 201.11 944.56 199.32 944.54 196.33 944.54
  C 193.33 944.54 191.54 944.56 190.95 944.60
  C 190.59 944.63 190.29 944.85 190.16 945.18
  L 187.49 952.29
  C 187.30 952.78 186.84 953.09 186.33 953.10
  L 181.65 953.10
  C 181.23 953.10 180.95 952.68 181.10 952.30
  L 192.99 920.69
  C 193.10 920.40 193.36 920.20 193.66 920.16
  C 194.52 920.05 195.40 920.00 196.32 920.00
  Z
  M 192.10 939.21
  C 192.03 939.41 192.18 939.62 192.39 939.62
  L 200.34 939.59
  C 200.55 939.59 200.70 939.38 200.63 939.18
  L 196.62 927.91
  C 196.52 927.63 196.13 927.63 196.03 927.91
  L 192.10 939.21
  Z"
/>
<path fill="#ffffff" d="
  M 230.37 953.20
  C 228.79 953.20 227.91 953.20 227.72 953.19
  C 227.40 953.18 227.15 952.92 227.15 952.59
  L 227.23 926.42
  C 227.24 926.09 226.97 925.83 226.64 925.83
  L 217.58 925.80
  C 217.11 925.80 216.73 925.41 216.73 924.94
  L 216.74 920.81
  C 216.75 920.35 217.11 919.98 217.57 919.97
  C 221.73 919.92 226.02 919.91 230.45 919.93
  C 234.88 919.93 239.18 919.96 243.34 920.03
  C 243.79 920.04 244.16 920.42 244.16 920.87
  L 244.15 925.00
  C 244.15 925.48 243.77 925.86 243.30 925.86
  L 234.23 925.85
  C 233.91 925.85 233.64 926.11 233.64 926.43
  L 233.60 952.61
  C 233.60 952.93 233.34 953.20 233.02 953.20
  C 232.83 953.21 231.95 953.21 230.37 953.20
  Z"
/>
<path fill="#ffffff" d="
  M 270.13 933.74
  C 272.44 933.74 274.73 933.72 277.01 933.70
  C 277.28 933.69 277.50 933.47 277.50 933.20
  L 277.50 920.69
  C 277.50 920.32 277.80 920.02 278.17 920.02
  L 283.39 920.02
  C 283.78 920.02 284.10 920.34 284.10 920.73
  L 284.10 952.19
  C 284.10 952.66 283.72 953.04 283.25 953.04
  L 278.34 953.04
  C 277.89 953.04 277.53 952.68 277.53 952.23
  L 277.53 939.70
  C 277.53 939.36 277.25 939.08 276.91 939.08
  C 273.49 939.08 271.23 939.08 270.13 939.08
  C 269.03 939.09 266.77 939.09 263.36 939.09
  C 263.02 939.09 262.74 939.37 262.74 939.72
  L 262.76 952.25
  C 262.76 952.69 262.40 953.06 261.96 953.06
  L 257.05 953.07
  C 256.58 953.07 256.19 952.69 256.19 952.22
  L 256.13 920.76
  C 256.13 920.37 256.44 920.05 256.84 920.05
  L 262.06 920.04
  C 262.43 920.04 262.73 920.34 262.73 920.71
  L 262.75 933.22
  C 262.75 933.49 262.97 933.71 263.25 933.71
  C 265.52 933.73 267.81 933.74 270.13 933.74
  Z"
/>
<path fill="#ffffff" d="
  M 321.33 948.12
  L 321.33 952.55
  C 321.33 952.89 321.06 953.16 320.72 953.16
  L 299.12 953.16
  C 298.78 953.16 298.51 952.89 298.51 952.55
  L 298.51 920.68
  C 298.51 920.34 298.78 920.07 299.12 920.07
  L 304.32 920.07
  C 304.66 920.07 304.93 920.34 304.93 920.68
  L 304.93 946.90
  C 304.93 947.24 305.20 947.51 305.54 947.51
  L 320.72 947.51
  C 321.06 947.51 321.33 947.78 321.33 948.12
  Z"
/>
<path fill="#ffffff" d="
  M 332.70 921.00
  C 332.69 920.52 333.07 920.14 333.55 920.14
  L 354.61 920.04
  C 355.08 920.03 355.46 920.41 355.46 920.88
  L 355.42 925.11
  C 355.42 925.52 355.08 925.86 354.66 925.86
  L 340.07 925.91
  C 339.66 925.91 339.32 926.25 339.32 926.67
  L 339.32 932.88
  C 339.32 933.30 339.65 933.63 340.07 933.63
  L 352.48 933.68
  C 352.91 933.68 353.26 934.03 353.26 934.45
  L 353.29 938.11
  C 353.29 938.54 352.94 938.89 352.51 938.89
  L 340.27 938.92
  C 339.79 938.92 339.40 939.31 339.39 939.79
  L 339.23 946.81
  C 339.22 947.28 339.60 947.66 340.07 947.65
  L 355.22 947.47
  C 355.70 947.47 356.09 947.86 356.08 948.34
  L 355.97 952.15
  C 355.95 952.65 355.54 953.05 355.03 953.05
  L 333.52 953.07
  C 333.17 953.07 332.88 952.79 332.87 952.43
  L 332.70 921.00
  Z"
/>
<path fill="#ffffff" d="
  M 427.27 920.67
  L 427.31 925.10
  C 427.31 925.49 426.99 925.81 426.60 925.82
  L 411.79 925.92
  C 411.40 925.93 411.08 926.25 411.08 926.64
  L 411.13 933.01
  C 411.13 933.40 411.45 933.72 411.84 933.71
  L 424.39 933.63
  C 424.78 933.62 425.10 933.94 425.11 934.33
  L 425.13 938.19
  C 425.14 938.58 424.82 938.90 424.43 938.91
  L 411.77 938.99
  C 411.38 939.00 411.06 939.32 411.07 939.71
  L 411.12 947.00
  C 411.13 947.39 411.45 947.71 411.84 947.70
  L 427.13 947.59
  C 427.52 947.58 427.84 947.90 427.85 948.29
  L 427.87 952.37
  C 427.88 952.76 427.56 953.08 427.17 953.09
  L 405.37 953.24
  C 404.98 953.25 404.66 952.93 404.65 952.54
  L 404.43 920.84
  C 404.42 920.45 404.74 920.13 405.13 920.12
  L 426.56 919.97
  C 426.95 919.96 427.27 920.28 427.27 920.67
  Z"
/>
<path fill="#ffffff" d="
  M 481.02 935.80
  C 480.72 936.00 480.74 936.45 481.05 936.62
  C 483.76 938.17 485.24 940.44 485.49 943.45
  C 485.97 949.02 481.59 952.60 476.41 952.82
  C 471.00 953.05 465.52 953.14 459.97 953.11
  C 459.40 953.10 458.94 952.64 458.94 952.07
  L 458.94 920.85
  C 458.94 920.48 459.24 920.17 459.61 920.16
  C 465.12 920.01 470.83 920.05 476.75 920.28
  C 483.17 920.53 485.45 927.58 483.38 932.91
  C 482.92 934.10 482.13 935.06 481.02 935.80
  Z
  M 465.57 926.35
  L 465.59 933.17
  C 465.59 933.54 465.89 933.84 466.26 933.84
  L 474.10 933.81
  C 476.16 933.80 477.83 932.11 477.82 930.02
  L 477.82 929.42
  C 477.81 927.33 476.14 925.64 474.08 925.65
  L 466.24 925.68
  C 465.87 925.68 465.57 925.98 465.57 926.35
  Z
  M 465.63 939.52
  L 465.57 947.08
  C 465.57 947.44 465.86 947.72 466.21 947.73
  L 474.56 947.79
  C 477.06 947.80 479.10 945.94 479.12 943.63
  L 479.12 943.17
  C 479.14 940.85 477.12 938.96 474.62 938.95
  L 466.27 938.89
  C 465.92 938.88 465.63 939.17 465.63 939.52
  Z"
/>
<path fill="#ffffff" d="
  M 503.93 925.73
  L 504.07 940.41
  C 504.52 943.97 506.07 946.25 508.74 947.26
  C 513.32 948.99 517.85 946.65 518.90 941.72
  C 519.35 939.59 519.57 937.18 519.55 934.50
  C 519.51 928.69 519.44 924.16 519.34 920.90
  C 519.32 920.49 519.66 920.14 520.07 920.14
  L 525.36 920.14
  C 525.79 920.14 526.13 920.48 526.13 920.90
  C 526.16 931.70 526.04 938.36 525.77 940.89
  C 524.66 951.22 516.72 954.79 507.47 952.98
  C 501.23 951.76 497.54 946.25 497.36 940.21
  C 497.20 934.69 497.16 928.24 497.25 920.85
  C 497.26 920.40 497.63 920.03 498.08 920.03
  L 503.28 920.03
  C 503.73 920.03 504.09 920.40 504.08 920.85
  L 503.93 925.73
  Z"
/>
<rect fill="#ffffff" x="-3.38" y="-16.53" transform="translate(543.18,936.60) rotate(-0.1)" width="6.76" height="33.06" rx="0.65"/>
<path fill="#ffffff" d="
  M 567.42 946.75
  C 567.42 947.18 567.77 947.52 568.20 947.52
  L 583.18 947.44
  C 583.59 947.44 583.91 947.77 583.90 948.18
  L 583.80 952.33
  C 583.79 952.75 583.44 953.09 583.01 953.09
  L 561.73 953.14
  C 561.40 953.14 561.12 952.88 561.12 952.55
  L 561.03 920.82
  C 561.03 920.47 561.32 920.18 561.68 920.17
  L 566.89 920.13
  C 567.23 920.12 567.52 920.40 567.52 920.74
  L 567.42 946.75
  Z"
/>
<path fill="#ffffff" d="
  M 601.85 919.97
  C 606.27 919.96 610.55 919.99 614.70 920.05
  C 615.16 920.06 615.52 920.43 615.52 920.89
  L 615.52 925.01
  C 615.52 925.48 615.14 925.87 614.67 925.87
  L 605.63 925.87
  C 605.30 925.87 605.04 926.13 605.04 926.45
  L 605.04 952.56
  C 605.04 952.88 604.79 953.15 604.47 953.15
  C 604.28 953.16 603.40 953.16 601.82 953.16
  C 600.25 953.16 599.37 953.15 599.18 953.15
  C 598.86 953.14 598.60 952.88 598.60 952.55
  L 598.65 926.44
  C 598.65 926.12 598.39 925.86 598.06 925.86
  L 589.02 925.85
  C 588.55 925.85 588.17 925.46 588.17 924.99
  L 588.18 920.87
  C 588.18 920.41 588.55 920.04 589.00 920.03
  C 593.15 919.97 597.43 919.95 601.85 919.97
  Z"
/>
<path fill="#ffffff" d="
  M 683.08 920.75
  L 683.08 925.00
  C 683.08 925.39 682.76 925.71 682.37 925.71
  L 668.05 925.71
  C 667.66 925.71 667.34 926.03 667.34 926.42
  L 667.34 933.17
  C 667.34 933.56 667.66 933.88 668.05 933.88
  L 680.19 933.88
  C 680.58 933.88 680.90 934.20 680.90 934.59
  L 680.90 938.60
  C 680.90 938.99 680.58 939.31 680.19 939.31
  L 668.03 939.31
  C 667.64 939.31 667.32 939.63 667.32 940.02
  L 667.32 952.47
  C 667.32 952.86 667.00 953.18 666.61 953.18
  L 661.60 953.18
  C 661.21 953.18 660.89 952.86 660.89 952.47
  L 660.89 920.75
  C 660.89 920.36 661.21 920.04 661.60 920.04
  L 682.37 920.04
  C 682.76 920.04 683.08 920.36 683.08 920.75
  Z"
/>
<rect fill="#ffffff" x="-3.35" y="-16.50" transform="translate(698.73,936.64) rotate(-0.1)" width="6.70" height="33.00" rx="0.51"/>
<path fill="#ffffff" d="
  M 715.84 920.90
  C 715.83 920.42 716.21 920.04 716.68 920.04
  L 737.73 919.99
  C 738.20 919.98 738.58 920.37 738.57 920.83
  L 738.53 925.05
  C 738.52 925.47 738.19 925.81 737.77 925.81
  L 723.19 925.82
  C 722.78 925.82 722.44 926.16 722.44 926.58
  L 722.42 932.78
  C 722.42 933.20 722.76 933.54 723.18 933.54
  L 735.57 933.61
  C 736.00 933.61 736.35 933.96 736.35 934.39
  L 736.36 938.04
  C 736.36 938.47 736.02 938.82 735.59 938.82
  L 723.37 938.82
  C 722.88 938.82 722.49 939.20 722.48 939.68
  L 722.31 946.70
  C 722.30 947.17 722.67 947.55 723.14 947.54
  L 738.28 947.40
  C 738.76 947.39 739.14 947.79 739.13 948.26
  L 739.02 952.07
  C 739.00 952.57 738.58 952.97 738.08 952.97
  L 716.59 952.94
  C 716.24 952.94 715.95 952.66 715.94 952.30
  L 715.84 920.90
  Z"
/>
<path fill="#ffffff" d="
  M 757.84 946.67
  C 757.84 947.10 758.19 947.45 758.62 947.45
  L 773.61 947.37
  C 774.01 947.37 774.34 947.71 774.33 948.11
  L 774.22 952.26
  C 774.21 952.69 773.86 953.03 773.44 953.03
  L 752.14 953.07
  C 751.81 953.07 751.53 952.80 751.53 952.47
  L 751.45 920.73
  C 751.45 920.37 751.74 920.08 752.10 920.08
  L 757.32 920.03
  C 757.66 920.03 757.95 920.31 757.95 920.65
  L 757.84 946.67
  Z"
/>
<path fill="#ffffff" d="
  M 785.88 920.55
  C 785.88 920.26 786.12 920.01 786.42 920.01
  L 798.00 919.99
  C 806.80 919.98 813.95 926.95 813.97 935.56
  L 813.97 937.46
  C 813.99 946.07 806.86 953.06 798.06 953.07
  L 786.48 953.09
  C 786.18 953.09 785.94 952.85 785.94 952.55
  L 785.88 920.55
  Z
  M 792.15 926.53
  L 792.19 946.59
  C 792.19 947.08 792.59 947.48 793.08 947.48
  L 798.28 947.47
  C 803.21 947.46 807.20 942.81 807.19 937.08
  L 807.19 936.00
  C 807.18 930.26 803.17 925.62 798.24 925.63
  L 793.04 925.64
  C 792.55 925.64 792.15 926.04 792.15 926.53
  Z"
/>
<path fill="#ffffff" d="
  M 846.77 953.13
  C 846.42 953.13 846.13 952.85 846.13 952.50
  L 846.13 920.63
  C 846.13 920.32 846.38 920.07 846.69 920.07
  C 852.44 920.08 856.54 920.06 859.01 920.03
  C 867.52 919.91 872.46 927.49 869.70 935.20
  C 866.89 943.03 859.41 942.09 852.67 942.11
  C 852.46 942.11 852.29 942.28 852.29 942.49
  L 852.29 952.44
  C 852.29 952.82 851.98 953.13 851.60 953.13
  L 846.77 953.13
  Z
  M 852.26 926.20
  L 852.30 935.98
  C 852.30 936.30 852.55 936.55 852.87 936.55
  L 858.93 936.53
  C 861.89 936.52 864.29 934.15 864.28 931.25
  L 864.28 930.85
  C 864.27 927.94 861.86 925.60 858.89 925.61
  L 852.83 925.63
  C 852.52 925.63 852.26 925.89 852.26 926.20
  Z"
/>
<path fill="#ffffff" d="
  M 908.80 952.24
  C 909.06 952.64 908.78 953.17 908.30 953.17
  L 903.52 953.17
  C 902.73 953.17 901.99 952.77 901.56 952.10
  L 895.45 942.73
  C 895.18 942.31 894.72 942.06 894.22 942.06
  L 889.60 942.06
  C 889.18 942.06 888.84 942.40 888.84 942.82
  L 888.84 952.30
  C 888.84 952.76 888.47 953.13 888.01 953.13
  L 883.13 953.13
  C 882.67 953.13 882.30 952.75 882.30 952.29
  L 882.30 920.63
  C 882.30 920.28 882.59 919.99 882.94 920.00
  L 898.05 920.20
  C 898.42 920.21 898.79 920.26 899.15 920.37
  C 905.72 922.28 908.46 926.71 907.37 933.66
  C 906.78 937.41 904.65 938.63 902.02 940.77
  C 901.76 940.97 901.71 941.34 901.89 941.62
  L 908.80 952.24
  Z
  M 888.91 926.55
  L 888.95 935.47
  C 888.96 935.90 889.31 936.25 889.74 936.25
  L 896.19 936.21
  C 898.95 936.20 901.19 933.95 901.17 931.20
  L 901.17 930.70
  C 901.15 927.94 898.90 925.72 896.13 925.73
  L 889.68 925.77
  C 889.25 925.77 888.90 926.12 888.91 926.55
  Z"
/>
<path fill="#ffffff" d="
  M 974.09 944.71
  C 974.20 944.71 974.30 944.67 974.39 944.59
  C 974.41 944.57 974.43 944.55 974.44 944.52
  L 982.90 920.33
  C 982.95 920.20 983.07 920.12 983.20 920.12
  L 989.75 920.12
  C 989.86 920.12 989.94 920.23 989.90 920.33
  L 977.41 952.39
  C 977.29 952.71 977.03 952.97 976.70 953.08
  C 976.68 953.09 975.81 953.09 974.08 953.09
  C 972.36 953.09 971.49 953.08 971.47 953.08
  C 971.14 952.96 970.88 952.71 970.76 952.39
  L 958.30 920.32
  C 958.26 920.22 958.34 920.11 958.45 920.11
  L 965.00 920.11
  C 965.13 920.11 965.25 920.20 965.30 920.32
  L 973.74 944.52
  C 973.75 944.55 973.77 944.57 973.79 944.59
  C 973.88 944.67 973.98 944.71 974.09 944.71
  Z"
/>
<path fill="#ffffff" d="
  M 1000.85 920.87
  C 1000.84 920.40 1001.22 920.01 1001.70 920.01
  L 1022.77 920.02
  C 1023.24 920.02 1023.62 920.40 1023.61 920.87
  L 1023.56 925.09
  C 1023.55 925.51 1023.21 925.85 1022.80 925.85
  L 1008.19 925.82
  C 1007.78 925.82 1007.45 926.16 1007.44 926.57
  L 1007.41 932.79
  C 1007.40 933.21 1007.74 933.55 1008.16 933.55
  L 1020.57 933.66
  C 1021.00 933.66 1021.36 934.01 1021.35 934.44
  L 1021.36 938.09
  C 1021.35 938.53 1021.01 938.88 1020.58 938.87
  L 1008.34 938.84
  C 1007.85 938.84 1007.46 939.22 1007.44 939.70
  L 1007.25 946.73
  C 1007.24 947.20 1007.62 947.58 1008.09 947.57
  L 1023.25 947.47
  C 1023.73 947.47 1024.11 947.86 1024.10 948.34
  L 1023.97 952.16
  C 1023.95 952.66 1023.54 953.05 1023.03 953.05
  L 1001.51 952.96
  C 1001.16 952.96 1000.87 952.68 1000.86 952.32
  L 1000.85 920.87
  Z"
/>
<path fill="#ffffff" d="
  M 1048.53 938.48
  C 1047.95 937.73 1046.40 935.64 1043.88 932.22
  C 1043.65 931.91 1043.15 932.07 1043.15 932.46
  L 1043.15 952.48
  C 1043.15 952.84 1042.86 953.13 1042.50 953.13
  L 1037.18 953.13
  C 1036.86 953.13 1036.60 952.86 1036.60 952.54
  L 1036.60 920.82
  C 1036.60 920.45 1036.91 920.15 1037.28 920.15
  L 1041.51 920.15
  C 1042.05 920.15 1042.56 920.41 1042.88 920.84
  C 1046.85 926.29 1050.32 930.96 1053.31 934.87
  C 1053.88 935.62 1055.43 937.71 1057.96 941.13
  C 1058.19 941.44 1058.68 941.28 1058.68 940.89
  L 1058.68 920.87
  C 1058.68 920.51 1058.97 920.22 1059.33 920.22
  L 1064.65 920.22
  C 1064.97 920.22 1065.23 920.48 1065.23 920.81
  L 1065.23 952.53
  C 1065.23 952.90 1064.93 953.20 1064.55 953.20
  L 1060.32 953.20
  C 1059.78 953.20 1059.27 952.94 1058.95 952.50
  C 1054.98 947.06 1051.51 942.39 1048.53 938.48
  Z"
/>
<path fill="none" d="
  M 465.57 926.35
  C 465.57 925.98 465.87 925.68 466.24 925.68
  L 474.08 925.65
  C 476.14 925.64 477.81 927.33 477.82 929.42
  L 477.82 930.02
  C 477.83 932.11 476.16 933.80 474.10 933.81
  L 466.26 933.84
  C 465.89 933.84 465.59 933.54 465.59 933.17
  L 465.57 926.35
  Z"
/>
<path fill="#0063fd" d="
  M 503.93 925.73
  L 504.07 940.41
  L 503.93 925.73
  Z"
/>
<path fill="none" d="
  M 792.15 926.53
  C 792.15 926.04 792.55 925.64 793.04 925.64
  L 798.24 925.63
  C 803.17 925.62 807.18 930.26 807.19 936.00
  L 807.19 937.08
  C 807.20 942.81 803.21 947.46 798.28 947.47
  L 793.08 947.48
  C 792.59 947.48 792.19 947.08 792.19 946.59
  L 792.15 926.53
  Z"
/>
<path fill="none" d="
  M 852.26 926.20
  C 852.26 925.89 852.52 925.63 852.83 925.63
  L 858.89 925.61
  C 861.86 925.60 864.27 927.94 864.28 930.85
  L 864.28 931.25
  C 864.29 934.15 861.89 936.52 858.93 936.53
  L 852.87 936.55
  C 852.55 936.55 852.30 936.30 852.30 935.98
  L 852.26 926.20
  Z"
/>
<path fill="none" d="
  M 888.91 926.55
  C 888.90 926.12 889.25 925.77 889.68 925.77
  L 896.13 925.73
  C 898.90 925.72 901.15 927.94 901.17 930.70
  L 901.17 931.20
  C 901.19 933.95 898.95 936.20 896.19 936.21
  L 889.74 936.25
  C 889.31 936.25 888.96 935.90 888.95 935.47
  L 888.91 926.55
  Z"
/>
<ellipse fill="none" cx="0.00" cy="0.00" transform="translate(934.75,936.74) rotate(-89.0)" rx="11.19" ry="9.37"/>
<path fill="none" d="
  M 192.10 939.21
  L 196.03 927.91
  C 196.13 927.63 196.52 927.63 196.62 927.91
  L 200.63 939.18
  C 200.70 939.38 200.55 939.59 200.34 939.59
  L 192.39 939.62
  C 192.18 939.62 192.03 939.41 192.10 939.21
  Z"
/>
<path fill="none" d="
  M 465.63 939.52
  C 465.63 939.17 465.92 938.88 466.27 938.89
  L 474.62 938.95
  C 477.12 938.96 479.14 940.85 479.12 943.17
  L 479.12 943.63
  C 479.10 945.94 477.06 947.80 474.56 947.79
  L 466.21 947.73
  C 465.86 947.72 465.57 947.44 465.57 947.08
  L 465.63 939.52
  Z"
/>
<rect fill="#ffffff" x="-3.39" y="-3.75" transform="translate(1082.17,949.71) rotate(-2.1)" width="6.78" height="7.50" rx="3.09"/>
<ellipse fill="#ffffff" cx="0.00" cy="0.00" transform="translate(625.86,949.77) rotate(-96.0)" rx="3.64" ry="3.38"/>
</svg>
